<?xml version="1.0"?>
<svg xmlns:rdf="http://www.w3.org/1999/02/22-rdf-syntax-ns#" xmlns="http://www.w3.org/2000/svg" xmlns:cc="http://web.resource.org/cc/" xmlns:xlink="http://www.w3.org/1999/xlink" xmlns:dc="http://purl.org/dc/elements/1.1/" xmlns:svg="http://www.w3.org/2000/svg" id="Layer_1" xml:space="preserve" overflow="visible" viewBox="0 0 512.039 283.068" version="1.1" enable-background="new 0 0 512.039 283.068">
<g clip-rule="evenodd" fill-rule="evenodd">
	<path d="m454 2.396c-4.121 2.546-9.656 3.677-16 4 2.61-4.052 9.27-4.059 16-4z" fill="#EFF0F0"/>
	<path d="m463 3.396c-2.721 2.73-6.952 3.015-11 2 1.96-2.368 6.63-2.034 11-2z" fill="#EFF0F0"/>
	<path d="m474 6.396c-4.235 2.048-10.954 2.504-16 1 3.48-2.803 11.24-2.22 16-1z" fill="#EFF0F0"/>
	<path d="m478 13.396c3.19-1.817 8.566 2.737 13 3-3.4 2.025-9.68-1.621-13-3z"/>
	<path d="m407 17.396c1.78 0.733 0.145 1.818 0 3-1.78-0.732-0.14-1.818 0-3z" fill="#EFF0F0"/>
	<path d="m506 44.396c-5.241-9.425-9.083-20.25-20-24 3.569-2.195 8.07 3.232 12 4 1.23 7.778 9.98 12.223 8 20z" fill="#EFF0F0"/>
	<path d="m496 31.396c2.908 0.87 1.125 1.497 1 4-1.36-0.309-0.83-2.503-1-4z" fill="#EFF0F0"/>
	<path d="m392 34.396c-0.188 2.812-3.263 2.737-4 5-2.48-1.58 1.22-5.373 4-5z" fill="#EFF0F0"/>
	<path d="m396 34.396c1.78 0.733 0.145 1.818 0 3-1.78-0.732-0.14-1.818 0-3z" fill="#EFF0F0"/>
	<path d="m498 36.396c1.513-3.53 1.896 1.842 1 2-0.59 0.105-1.26-1.404-1-2z" fill="#EFF0F0"/>
	<path d="m384 39.396h2c0.282 1.615-0.945 1.722-1 3h-2c-0.28-1.615 0.94-1.721 1-3z" fill="#EFF0F0"/>
	<path d="m391 41.396c1.78 0.733 0.145 1.818 0 3-1.78-0.732-0.14-1.818 0-3z" fill="#EFF0F0"/>
	<path d="m384 43.396c1.78 0.733 0.145 1.818 0 3-1.78-0.732-0.14-1.818 0-3z" fill="#EFF0F0"/>
	<path d="m390 45.396h2v2h-2v-2z" fill="#EFF0F0"/>
	<path d="m395 48.396c1.94-0.396 1.461 4.555-1 3v-2c0.85 0.184 0.94-0.39 1-1z" fill="#EFF0F0"/>
	<path d="m386 59.396c-1.78-0.733-0.145-1.818 0-3 1.78 0.733 0.14 1.819 0 3z" fill="#EFF0F0"/>
	<path d="m391 56.396c-0.063 3.937-3.158 4.841-6 6 1.14-2.862 3.14-4.862 6-6z" fill="#EFF0F0"/>
	<path d="m29 78.396c7.813-5.252 18.066-13.179 27-14-9.44 4.227-16.339 10.995-27 14z" fill="#EFF0F0"/>
	<path d="m34 80.396c-2.038-3.356 3.286-2.843 5-4 5.234-3.534 13.132-10.227 21-12-7.575 6.426-17.943 10.058-26 16z" fill="#EFF0F0"/>
	<path d="m56 90.396c10.028-8.306 23.221-13.446 35-20 0.304 3.096-4.368 4.568-7 6-7.848 4.269-18.962 9.77-28 14z" fill="#EFF0F0"/>
	<path d="m80 100.4c-0.327-3.788 5.135-4.342 8-6 8.977-5.195 20.89-12.069 32-16-12.12 8.539-26.499 14.831-40 22z" fill="#EFF0F0"/>
	<path d="m129 82.396c3.457 1.817-4.949 3.405-8 5-10.047 5.251-22.336 13.792-34 17 12.569-8.767 28.17-14.503 42-22.004z" fill="#EFF0F0"/>
	<path d="m404 85.396c-5.193 4.474-16.104 3.229-25 4 4.458-2.542 12.246-1.754 18-3 0.03-5.297 3.89-0.957 7-1z" fill="#EFF0F0"/>
	<path d="m402 91.396c0.125-2.208 4.242-0.425 6-1-0.12 2.209-4.24 0.425-6 1z" fill="#EFF0F0"/>
	<path d="m390 92.396c-0.169-2.168 3.547-0.453 5-1 0.17 2.169-3.55 0.454-5 1z" fill="#EFF0F0"/>
	<path d="m316 93.396c-1.915 1.752-5.214 2.12-8 3 1.13-2.533 4.43-2.901 8-3z"/>
	<path d="m375 94.396c-0.147 2.186-2.52 2.147-5 2 0.15-2.186 2.52-2.146 5-2z" fill="#EFF0F0"/>
	<path d="m365 96.396c3.03-3.697 3.37 3.038 0 0z" fill="#EFF0F0"/>
	<path d="m177 110.4c2.306-5.694 10.363-5.637 14-10 0.18 4.2-9.43 7.22-14 10z" fill="#EFF0F0"/>
	<path d="m335 103.4c-0.437 1.23-1.279 2.054-3 2 0.44-1.23 1.28-2.06 3-2z" fill="#EFF0F0"/>
	<path d="m262 108.4c-2.2 3.05-6.4-1.16 0 0z" fill="#EFF0F0"/>
	<path d="m251 110.4c-2.2 3.05-6.4-1.16 0 0z" fill="#EFF0F0"/>
	<path d="m243 114.4c-0.125 2.208-4.242 0.425-6 1 0.91-3.63 2.95-0.61 6-1z" fill="#EFF0F0"/>
	<path d="m282 114.4c2.58-3.45 2.42 5.14 0 0z" fill="#EFF0F0"/>
	<path d="m287 125.4c-1.172-0.162-0.844-1.823-1-3-1.172 0.162-0.844 1.823-1 3-3.024-1.514 0.829-4.389 0-7 0.99-1.89 2.06 4.52 2 7z"/>
	<path d="m307 121.4c4.58 0.66-0.8 6.05 0 0z" fill="#EFF0F0"/>
	<path d="m245 124.4c1.425 1.908 2.325 4.342 3 7-2.33-1.01-3.22-3.44-3-7z"/>
	<path d="m288 133.4c-3.06-2.2 1.15-6.41 0 0z" fill="#EFF0F0"/>
	<path d="m221 133.4c0.09-8.06 1.64 10.9 0 0z"/>
	<path d="m249 138.4c0.381-1.904 1.272 0.639 1 2-0.38 1.9-1.27-0.64-1-2z"/>
	<path d="m288 140.4c0.381-1.904 1.272 0.639 1 2-0.38 1.9-1.27-0.64-1-2z"/>
	<path d="m246 141.4c-5.688 4.628-11.757 2.021-19 1 5.79-2.97 13.12-0.94 19-1z" fill="#EFF0F0"/>
	<path d="m223 143.4c0.381-1.904 1.272 0.639 1 2-0.38 1.9-1.27-0.64-1-2z"/>
	<path d="m216 159.4c1.172-0.161 0.843-1.823 1-3 2.168-0.169 0.453 3.547 1 5-0.804-0.529-1.624-1.043-3-1-0.58-3.246 0.681-4.652 1-7-3.568 4.37-0.17-4.245-2-8 2.44 3.62 3.57 9.04 2 14z"/>
	<path d="m266 149.4c0.381-1.903 1.272 0.639 1 2-0.38 1.9-1.27-0.64-1-2z"/>
	<path d="m230 157.4c-2.34-0.257-0.576-4.394 0-5 2.93 0.85-1.3 2.51 0 5z"/>
	<path d="m291 153.4c-4.4 3.66-3.8-2.77 0 0z" fill="#EFF0F0"/>
	<path d="m206 157.4c1.656 1.011 1.086 4.247 2 6-3.61 0.94-1.4-3.94-2-6z" fill="#EFF0F0"/>
	<path d="m262 158.4c-0.869 1.464-1.497 3.17-4 3 0.87-1.47 1.5-3.17 4-3z" fill="#EFF0F0"/>
	<path d="m276 161.4c-0.396-1.94 4.555-1.461 3 1h-2c0.18-0.85-0.39-0.95-1-1z" fill="#EFF0F0"/>
	<path d="m297 160.4c-0.147 2.187-2.52 2.147-5 2 0.85-1.49 2.52-2.15 5-2z" fill="#EFF0F0"/>
	<path d="m267 161.4c-0.241 1.759-1.721 2.279-4 2-1.01-3.01 2.23-1.78 4-2z" fill="#EFF0F0"/>
	<path d="m213 164.4c-0.437 1.23-1.28 2.054-3 2 0.44-1.23 1.28-2.06 3-2z" fill="#EFF0F0"/>
	<path d="m252 164.4c-0.241 1.759-1.721 2.279-4 2 0.24-1.76 1.72-2.28 4-2z" fill="#EFF0F0"/>
	<path d="m256 164.4c1.615-0.281 1.722 0.945 3 1 0.4 1.94-4.56 1.46-3-1z" fill="#EFF0F0"/>
	<path d="m244 166.4c-0.396-1.94 4.555-1.461 3 1h-2c0.18-0.85-0.39-0.95-1-1z" fill="#EFF0F0"/>
	<path d="m276 165.4c-2.2 3.05-6.4-1.16 0 0z" fill="#EFF0F0"/>
	<path d="m222 167.4c0.431-2.236 4.928-0.405 7-1-0.43 2.23-4.93 0.4-7 1z" fill="#EFF0F0"/>
	<path d="m210 167.4c-0.241 1.759-1.721 2.279-4 2 0.24-1.76 1.72-2.28 4-2z" fill="#EFF0F0"/>
	<path d="m251 168.4c-2.36 3.21-4.04-3.52 0 0z" fill="#EFF0F0"/>
	<path d="m188 168.4c-0.847 1.486-3.22 1.447-5 2 0.15-2.19 2.52-2.15 5-2z" fill="#EFF0F0"/>
	<path d="m203 168.4c0.367 3.034-3.257 2.076-5 3 0.69-1.98 2.67-2.67 5-3z" fill="#EFF0F0"/>
	<path d="m143 170.4c0.461-2.765 3.523 1.477 2 3-0.15 0.15-1.94-3.38-2-3z" fill="#EFF0F0"/>
	<path d="m169 170.4c-1.402 1.598-3.445 2.555-6 3-0.09-3.1 3.02-2.98 6-3z" fill="#EFF0F0"/>
	<path d="m248 174.4c1.453-1.547 3.9-2.1 7-2-0.04 3.08-5.3 3.57-7 2z" fill="#EFF0F0"/>
	<path d="m320 182.4c6.131-2.064-1.862-2.789-5-4 0.85 1.483 2.517 2.15 5 2-5.978 2.621-11.516-3.8-18-4-0.396-2.396 4.555 0.555 3-3 3.402-0.069 6.979-0.312 8 2 1.401-0.354 0.086-1.761-1-2 5.435 0.886 11.732 6.084 21 7 2.981 0.295 6.648-0.22 10 0-2.77 3.36-15.97 0.02-23 2zm-7-5c-0.825-0.719-6.468-3.135-4-1 0.82 0.72 6.47 3.13 4 1z" fill="#EFF0F0"/>
	<path d="m143 177.4c1.286-1.714 2.068-3.933 5-4-0.34 2.65-2.62 3.37-5 4z" fill="#EFF0F0"/>
	<path d="m154 173.4c-1.067 2.267-3.033 3.634-6 4 1.07-2.27 3.03-3.64 6-4z" fill="#EFF0F0"/>
	<path d="m174 174.4c-0.147 2.187-2.52 2.147-5 2 0.15-2.19 2.52-2.15 5-2z" fill="#EFF0F0"/>
	<path d="m260 174.4c-0.92 1.746-3.126 2.207-6 2 0.11-2.56 3.35-1.99 6-2z" fill="#EFF0F0"/>
	<path d="m167 176.4c-1.01 1.656-4.247 1.086-6 2 1.32-2.64 3.28-3.07 6-2z" fill="#EFF0F0"/>
	<path d="m128 176.4c3.295 1.489-1.7 2.823-2 4-3.52-1.72 2.51-2.02 2-4z" fill="#EFF0F0"/>
	<path d="m147 177.4c-0.097 2.57-3.903 1.43-4 4-2.88-1.68 1.86-4.05 4-4z" fill="#EFF0F0"/>
	<path d="m137 179.4c-0.241 1.759-1.721 2.279-4 2 0.66-1.34 2.14-1.87 4-2z" fill="#EFF0F0"/>
	<path d="m96 180.4c1.793-0.127 2.109 1.225 4 1-0.241 1.759-1.721 2.279-4 2v-3z" fill="#EFF0F0"/>
	<path d="m434 186.4c-0.282-1.787 0.945-2.052 1-1 1.891 0.204 9.88-0.675 7 1-3.02-0.93-7.78 1.42-8 0z" fill="#EFF0F0"/>
	<path d="m407 186.4c-0.625 2.136-6.155 0.938-7 0-14.094 2.24-32.265 0.402-48 1 13.405-2.929 33.571 0.904 47-2 3.22-0.22 4.23 1.76 8 1z"/>
	<path d="m298 187.4c-7.7 2.45-10.57-2.79 0 0z" fill="#EFF0F0"/>
	<path d="m445 187.4c1.514-3.024 4.389 0.829 7 0 1.692 5.396-12.61 0.672-5 1-0.03-0.98-1.22-0.78-2-1z" fill="#EFF0F0"/>
	<path d="m453 187.4c2.836 1.497 6.581 2.085 10 3-2.29 1.9-10.16 0.87-10-3z" fill="#EFF0F0"/>
	<path d="m293 190.4c1.188-2.082 7.314-0.727 7 2-2.83-0.17-4.17-1.84-7-2z" fill="#EFF0F0"/>
	<path d="m321 190.4c-0.169-2.169 3.547-0.453 5-1 0.17 2.16-3.55 0.45-5 1z" fill="#EFF0F0"/>
	<path d="m363 191.4c-3.129 1.538-7.392 1.941-12 2 2.92-1.5 9.28-3.49 12-2z" fill="#EFF0F0"/>
	<path d="m412 190.4c-1.719 1.948-5.178 2.155-9 2 2.17-1.5 5.63-1.71 9-2z" fill="#EFF0F0"/>
	<path d="m314 192.4c-3.951 1.687-9.112 1.77-13 1 3.52-1.48 10.03-1.88 13-1z" fill="#EFF0F0"/>
	<path d="m339 192.4c1.712-2.288 7.633-0.367 11-1-1.71 2.28-7.63 0.36-11 1z" fill="#EFF0F0"/>
	<path d="m342 195.4c0.125-2.209 4.242-0.425 6-1-0.91 3.62-2.95 0.6-6 1z" fill="#EFF0F0"/>
	<path d="m388 195.4c-0.759 1.653-8.24 1.653-9 0 3.99 0.86 7.39-1.5 9 0z" fill="#EFF0F0"/>
	<path d="m448 195.4c0.257-2.341 4.394-0.576 5 0-0.85 2.93-3.22-0.6-5 0z" fill="#EFF0F0"/>
	<path d="m335 196.4c-0.169-2.169 3.547-0.453 5-1 0.17 2.16-3.55 0.45-5 1z" fill="#EFF0F0"/>
	<path d="m365 196.4c-0.169-2.169 3.547-0.453 5-1 0.17 2.16-3.55 0.45-5 1z" fill="#EFF0F0"/>
	<path d="m431 196.4c1.712-2.288 7.633-0.367 11-1-1.71 2.28-7.63 0.36-11 1z" fill="#EFF0F0"/>
	<path d="m459 195.4c-0.658 1.342-2.138 1.862-4 2 0.24-1.76 1.72-2.28 4-2z" fill="#EFF0F0"/>
	<path d="m352 196.4c-2.2 3.05-6.4-1.16 0 0z" fill="#EFF0F0"/>
	<path d="m464 197.4c-0.31 1.357-2.504 0.83-4 1 0.28-2.32 2.67-2.3 4-1z" fill="#EFF0F0"/>
	<path d="m333 198.4c-0.169-2.169 3.547-0.453 5-1 0.17 2.16-3.55 0.45-5 1z" fill="#EFF0F0"/>
	<path d="m407 204.4c-0.437 1.23-1.279 2.054-3 2 0.44-1.23 1.28-2.06 3-2z" fill="#EFF0F0"/>
	<path d="m490 214.4c0.15-2.487 3.387-0.292 4 0-0.15 2.48-3.39 0.29-4 0z" fill="#EFF0F0"/>
	<path d="m484 215.4c4.68-3.49 4.03 5.04 0 0z" fill="#EFF0F0"/>
	<path d="m496 219.4c2.58-3.45 2.42 5.14 0 0z" fill="#EFF0F0"/>
	<path d="m493 225.4c1.23 0.437 2.054 1.279 2 3-1.23-0.44-2.05-1.28-2-3z" fill="#EFF0F0"/>
	<path d="m496 239.4c-3.839 1.744-0.661-8.545-4-4-2.236-0.431-0.405-4.929-1-7 3.083 4.305 3.508 1.875 6 4-0.32 2.34-1.58 3.75-1 7z" fill="#EFF0F0"/>
	<path d="m501 229.4c1.313 0.354 1.573 1.761 3 2-0.41 2.49-3.88 0.06-3-2z" fill="#EFF0F0"/>
	<path d="m498 232.4c3.149-0.483 2.264 3.069 6 2 0.319 2.319-0.161 3.839-1 5-2.306 0.306-1.111-2.889-3-3-4.007 1.286 0.274 2.067 0 5-4.91 0.54-2.72-6.61-2-9z" fill="#EFF0F0"/>
	<path d="m509 237.4c0.65-2.819 1.161 2.304 1 3-0.46 2-1.88 0.8-1-3z" fill="#EFF0F0"/>
	<path d="m437 272.4c-4.422 3.377-9.008-1.625-14-1 3.04-2 10.31 0.32 14 1z" fill="#EFF0F0"/>
	<path d="m446 279.4c-0.169-2.169 3.547-0.453 5-1 0.17 2.16-3.55 0.45-5 1z" fill="#EFF0F0"/>
	<path d="m293 143.4c5.248 10.419 17.647 13.686 20 27 12.618 9.412 33.139 9.361 55 10 33.364 0.975 78.202-1.852 107 13 3.005 1.55 7.318 5.198 11 8 8.646 6.58 21.098 18.032 25 30 2.45 7.514 0.348 17.977-4 25-1.737 2.807-4.511 4.38-7 7-2.339 2.462-4.234 6.646-6 8-5.229 4.012-16.68 8.254-25 10-24.61 5.165-58.696-2.144-74-15-11.058-9.29-17.508-29.224-9-47 2.951-6.166 10.241-10.384 10-19-6.574-4.345-11.982-1.265-18-1-34.783 1.529-61.599 0.053-88-9-4.707-1.614-9.799-4.429-15-6-4.345-1.312-8.859-0.554-13-2-5.424-1.895-12.358-5.956-19-9-2.083-0.954-7.66-1.003-7-5-18.963-0.487-37.531 4.282-56 8-18.868 3.799-37.481 5.635-57 8-39.787 4.821-80.352 9.673-123 10 3.623-5.607 10.84-7.824 17-10 44.062-15.564 95.728-29.836 142-45-44.273-21.34-92.702-42.922-139-64-5.714-2.601-13.86-2.627-17-9 43.994-16.428 95.107 4.336 138 17 14.53 4.29 30.418 9.628 46 15 6.928 2.388 15.767 5.542 24 8 8.481 2.532 18.573 7.021 24 7 2.171-0.009 5.801-2.046 9-3 3.038-0.905 7.157-0.337 9-1 0.244-0.088 2.579-2.727 3-3 5.365-3.48 10.448-2.4 18-4 15.026-3.183 27.716-12.48 44-15 4.942-0.765 10.722-0.466 16-1 18.446-1.867 38.157-0.021 62-2-5.017-17.652-25.167-27.295-15-51 6.103-14.228 22.117-27.175 41-31 16.485-3.339 49.601-4.404 58 5 0.469 0.525 1.236-0.651 1-1 3.821 6.125 14.57 8.253 21 15 7.157 7.51 13.94 24.612 6 39-2.917 5.287-12.344 12.702-21 18-21.705 13.285-58.712 20.107-92 22-20.006 1.138-41.212 0.768-59 5-13.358 3.178-22.873 6.875-25 19-7.23 5.1-12.24 12.42-18 19zm5-26c-4.336 0.006-2.303-1.465-7-2 2.558 6.776 2.251 16.416 7 21 1.01-7.03-4.219-13.087-2-18 1.115 5.218 1.397 11.269 4 15 2.339-3.995 7.633-5.034 6-13-4.121 2.47-1.879-2.17-6-2-0.981 4.364 3.64 8.294 1 11-0.4-4.6-2.38-7.62-3-12zm54-29.004h8s5.333 0 8 0c-3.025-2.308-10.314-0.353-15-1-10.261-0.931-20.119 0.788-31 2-2.036-0.58-7.88 0.681-3 1 6.959 0.082 15.832-1.407 20-1-2.812-1.278 8.606-1.926 9 0-4.101 3.693-16.029-0.221-17 2 1.453 0.547 5.169-1.168 5 1-4.806-1.096-9.521 3.087-13 0 1.314 0.132 7.235 0.151 4-1-13.828 0.896-25-0.549-34 6 5.864 0.507 10.878-5.089 15-3-9.803 2.62-27.632 8.841-30 9 0.776 0.224 1.973 0.027 2 1-6.697 1.186-10.709-1.066-16 1 1.772 0.228 5.008-1.008 4 2-2.672 0.578-6.248-2.958-8 0 3.621 0.712 8.289 0.378 11 2-6.71-1.233 0.271 6.022-3 7 0.02-2.753-1.566-9.011-4-6-0.171 0.804 3.363 7.478 1 10-0.886-11.947-5.237-9.31-13-8 1.496 0.17 3.69-0.357 4 1-6.925 1.414-10.933-4.272-15 0 3.931 0.069 7.516 0.484 10 2-6.627 0.668-15.196 4.267-19-2-2.787-0.374-6.085 3.809-8 1 1.862-0.138 3.342-0.658 4-2-9.817 1.189-19.54 7.783-23 12 5.85-2.163 12.774-8.542 18-8-1.826-0.044-6.399 2.111-4 3 5.13-2.279 8.236-4.509 12-3-0.745-0.299-2.126 0.969-2 1 3.561 0.88 6.189-1.906 8 2-6.578 0.479-12.666-4.45-16 1 3.236 0.431 8.649-1.316 9 2-6.215 1.215-7.733-2.267-13-2-0.585 4.252 6.585 0.748 6 5-3.777-0.59-8.563-5.391-13-2 2.182 1.151 6.468 0.198 7 3-3.2-0.244-7.923-2.152-4 1-3.287 0.968-9.574-3.516-8-1 1.182 0.485 2.267 1.066 3 2 0.861 7.484 5.835 16.148 4 23-3.146-1.456-4.883-8.032-2-8-5.158-3.539-4.516-11.835-9-18-1.506 1.551-6.802 4.455-9 2 12.933-2.734 20.335-10.998 31-16-3.639-3.694-7.729 4.473-10 2 1.434-1.566 5.212-0.788 5-4-14.472 3.197-24.887 15.775-37 18 11.574-5.76 22.47-12.196 33-19-6.242-2.694-12.346 8.156-18 6 4.991-2.009 10.151-3.849 13-8-8.799-0.454-12.414 9.571-19 8 6.193-1.807 10.173-5.827 15-9-7.874-2.159-14.271 10.113-21 9 5.765-3.235 12.397-5.603 16-11-9.509 1.165-16.308 10.349-23 11 6.243-4.091 13.391-7.275 19-12-8.377 0.391-16.455 9.47-25 13 0.117-2.295 6.678-3.215 4-5-2.462 1.248-6.858 5.751-9 4 8.592-3.742 15.137-9.529 23-14-2.614-0.635-3.065-0.225-6-2-9.106 5.894-18.823 11.177-28 17-0.286-1.763 4.709-3.097 2-4-7.568 3.886-0.624 3.953-6 6 0.39-1.427 1.2-1.687 0-3 9.102-5.898 18.966-11.034 27-18-3.044-0.044-3.889 2.111-6 3-0.286-1.763 4.709-3.097 2-4-0.621 1.791-5.379 4.515-6 3 1.06-1.035 7.141-2.065 4-4-3.288 3.201-1.662 1.049-3-1-11.167 7.348-24.834 12.999-36 19-3.921 2.108-8.162 4.787-11 8 3.073-0.26 4.497-2.169 7-3-0.289 2.636-5.901 2.114-3 5 5.084-0.604 9.406-7.231 13-6-4.064 1.269-6.244 4.423-10 6 0.084 2.338 7.716-3.983 11-5-0.308-5.419 9.905-5.979 13-11-6.529 1.816-13.831 8.154-19 8 7.648-3.026 17.243-9.414 23-11-1.086 0.239-2.401 1.646-1 2 2.785-1.912 8.755-5.871 11-5-4.685 2.34-10.312 5.545-14 6 0.855 2.559-6.062 5.911-10 7 0.584 5.44-8.923 6.241-12 11 6.658-0.676 10.102-4.565 15-7 0.252 2.665-6.597 3.297-4 5 4.433-2.44 4.715-5.105 8-7-0.39 1.427-1.2 1.687 0 3-4.562 2.771-10.101 4.566-13 9 8.518 1.077 16.44-12.143 24-12-7.302 4.031-14.234 8.433-20 14 9.313-2.359 16.352-12.306 24-13-7.614 4.052-14.45 8.883-21 14 9.427-3.245 17.683-12.977 26-14-8.632 4.368-16.59 9.41-24 15 9.56-1.845 18.93-12.351 30-16-8.319 6.681-19.896 10.104-27 18 12.847-0.825 19.444-13.216 29-14-8.455 4.878-17.468 9.198-24 16 8.151-1.192 13.892-10.096 20-10-6.076 3.257-11.706 6.961-17 11 3.956 2.284 9.695-6.712 13-5-3.128 2.205-7.532 3.135-9 7 6.308-0.708 11.305-8.007 16-7-1.418 1.315-7.892 2.685-6 4 14.703-3.967 27.248-15.416 39-19-6.7 3.89-17.181 8.466-20 13-33.246 12.42-67.994 23.339-103 34-2.96 2.397-6.165 9.803-9 9 2.359-2.642 4.511-5.489 7-8-5.405 0.928-10.601 2.066-14 5-12.979-0.848-26.134 10.566-31 16 2-3.334 5.391-5.275 7-9-8.3 0.366-8.348 8.985-15 11 1.724-3.276 5.276-4.724 7-8-6.855 0.145-7.419 6.581-13 8-0.114-2.848 7.297-3.279 4-6-3.594 2.427-11.575 5.731-10 10 6.379-2.991 17.062-3.528 24-4 0.102 1.122-1.454 1.557 0 2 2.427-1.352 0.623-1.999 2-3 5.12 1.341 14.467-4.134 17 0 0.869-2.464 2.331-4.336 6-4-0.109 1.337-1.874 5.513 0 3 3.221-6.862 10.294-2.209 15-6 0.157 1.177-0.172 2.839 1 3 0.138-1.862 0.658-3.342 2-4-1.484 3.826 4.437-0.03 5 0 0.448 0.024-0.214 2.204 1 2 0.29-0.049 0.484-3.777 2-3 0.473 0.243-0.167 2.412 1 2 0.073-0.025 0.515-2.703 1-3-0.444 0.271 0.526 2.053 1 2-1.509 0.168 2.621-3.465 4-3 0.138 1.862 0.658 3.342 2 4 1.373-2.279-2.578-3.759 0-4 3.423 0.171 0.47 7.985 2 5 2.831 0.164-0.831-6.164 2-6 2.354 4.136 0.896 1.815 3-1 1.666 0.116 0.334 8.176 2 5 0.547-1.453-1.168-5.169 1-5 1.386 0.613 0.15 3.85 2 4 0.547-1.453-1.168-5.169 1-5 1.973 0.694-0.246 5.58 2 6 2.829-1.574-2.259-5.355 1-7 1.483 0.546 1.556 0.618 3 3 0.157-1.177-0.172-2.839 1-3-0.15 2.483 0.517 4.15 2 5 1.397-2.874-2.726-5.08 0-6 0.445 4.412 1.402-2.356 3 2 0.157-1.177-0.172-2.839 1-3 0.138 4.153 0.658 0.202 2 0-0.004 1.786 2.693 5.817 0 7-0.057-0.61-0.149-1.184-1-1-0.211 5.155 7.215-2.056 4-3-0.224 0.776-0.027 1.973-1 2 0.504-3.141-2.357-4.086 1-5 4.162 0.819 0.382 6.604 4 6 0.829-2.611-3.024-5.486 0-7 1.388 0.089 0.612 7.193 2 4 0.075-1.742-0.223-3.11-1-4 3.541-0.876 2.459-0.124 6-1v4c4.63 1.19-1.752-4.215 2-5 1.17 3.812 0.406 6.58 3 7 0.004-1.786-2.693-5.817 0-7-0.589 2.371 1.162 7.349 2 5-0.783-0.694-2.226-5.58 0-6 0.105 5.304 0.566 1.182 2 0-0.15 2.483 0.517 4.15 2 5 0.575-1.758-1.208-5.875 1-6 0.287 1.495 1.287 7.224 3 4-1.633 0.45-1.633-5.45 0-5-0.64 2.734 1.27 7.937 3 5-1.633 0.45-1.633-5.45 0-5-0.207 2.874 0.253 5.08 2 6 1.095-3.808-2.646-6.242 1-7 0.443 1.89-1.36 6.026 2 5 0.286-1.742-3.193-5.367 1-5-1.013 0.998-0.377 5.452 1 7 2.982-1.728-1.432-6.183 1-7 2.427 0.573-0.469 6.469 3 6 1.308-3.402-2.228-6.979 0-8 3.179 0.488-1.682 9.015 3 8 1.154-3.249-3.055-6.151 0-8 1.333 1.667-0.364 6.364 3 6 1.397-2.874-2.726-5.08 0-6 1.333 1.667-0.364 6.364 3 6 2.695-3.036-3.567-3.934 0-7 4.148-2.054 0.502 8.704 3 5 0.575-1.758-1.208-5.875 1-6 0.01 1.467-0.378 8.183 1 5 0.575-1.758-1.208-5.875 1-6-0.069 3.402-0.312 6.978 2 8 1.404-3.499-2.805-6.401 0-8 2.889 0.444-0.889 7.556 2 8 3.225-2.252-1.738-7.489 1-9 1.546 1.454 0.88 5.119 1 8 5.266 0.284-0.754-7.74 2-8 0.138 4.153 0.658 0.202 2 0-0.009 1.86-2.365 9.077 0 7 0.17-1.496-0.357-3.69 1-4 0.17 1.496-0.357 3.69 1 4 1.047-2.829-1.65-6.86 0-7 2.58 0.754-0.73 7.396 3 7-0.01-2.656 0.378-5.711-1-7 1.891 0.225 2.206-1.127 4-1-0.581 3.914 0.86 5.807 2 8 6.797-2.095 12.676 0.89 14-6-0.872 8.212 5.668-1.367 7 4-2.48-0.147-4.853-0.187-5 2 3.458 0.792 4.222-1.111 6-2 0.829-2.611-3.024-5.486 0-7-0.725 3.059 1.726 2.941 1 6 3.555 1.555 0.604-3.396 3-3-0.825 5.851 5.784 2.066 6 0 0.157 1.177-0.172 2.839 1 3 1.813-1.854 4.848-2.485 6-5 0.157 1.177-0.172 2.839 1 3-0.572-4.061 2.245 0.188 3 0 0.146-0.036 0.248-2.695 1-3 1.123-0.455 2.157 3.957 3 1-3.554-11.117-8.13-26.53-9-37 4.436 11.688 6.05 31.116 12 38 0.168-11.234-8.39-27.558-8-39 4.183 11.817 5.125 26.875 11 37 1.311-4.368-2.221-9.035 0-11 0.886 3.781 0.748 8.586 3 11 0.41-1.257 1.289-2.044 3-2 0.582-11.256-6.78-19.876-5-29-0.099 5.009 2.205 9.118 3 12 1.58 5.73 1.116 14.337 6 17 0.331-6.02-3.994-12.643-2-17 1.3 5.7 1.595 12.405 4 17 4.405-1.457 5.749-2.101 6-6-0.282 2.615 0.365 4.302 3 4 0.577-2.672-2.958-6.248 0-8-0.207 2.874 0.254 5.08 2 6 1.761-5.308-5.176-15.326-3-21 1.954 5.712 2 13.333 5 18 2.812-1.615 7.154 2.618 2-2 1.405-4.139-2.853-7.725 0-10-0.708 3.708 1.708 4.292 1 8 2.925-0.408 3.245-3.422 5-5-4.427-7.24-1.607-21.726-11-24-0.084 3.249-0.516 6.151-2 8-1.014-3.32-0.109-8.557-4-9-1.317 3.1 2.964 5.547 0 7-1.026-2.974-0.006-7.994-3-9-1.317 3.1 2.964 5.547 0 7-0.358-3.975-1.074-7.593-4-9 7.727 1.491 9.398-1.366 15-2-1.182-0.485-2.268-1.066-3-2 6.703-1.31 13.95-7.366 20-6-6.524 1.809-12.589 4.078-18 7 4.188 2.146 9.746 2.921 13 6-3.738 0.933-5.727-4.238-7 0 5.273-0.1 3.409 0.453 1 2 2.483-1.301 4.15 2.934 5 0-0.776-0.224-1.973-0.027-2-1 5.86-2.483 8.14 1.805 14 2-2.165 2.076-0.055 3.409 2 4-2.75-4.673 3.905-4.327 4-9-5.975 5.23-10.257 4.146-16-1 3.457 1.362 4.713-4.493 7-1-0.776 0.224-1.973 0.027-2 1 3.191-0.445 4.9-1.402 2-3 4.739-0.594 7.881-2.786 12-4-0.697 2.636-4.553 2.114-5 5 5-0.333 5.039-5.628 10-6 0.429 2.211-6.008 2.502-3 4 3.041-1.327 6.868-7.086 11-4-2.874-0.207-5.08 0.253-6 2 4.379-0.178 8.14-2.08 8-4 4.57 1.009 9.417 0.479 14 0-1.177-0.157-2.839 0.172-3-1 3.931 1.197 7.517-3.061 10 0-2.48-0.147-4.853-0.186-5 2 3.94-0.259 6.076-2.317 6-4 4.139 0.139 7.725-0.275 10-2-9.482 1.024-28.868 1.104-30 5-3.95-3.879-11.059 2.871-14 0 18.426-4.936 40.306-5.808 61-6 0.096 1.571-0.134 3.467 2 3 0.779-0.221 1.163-0.837 1-2 0.61-0.057 1.184-0.149 1-1-4.58 0.213-10.081-3.874-13-2-0.553 1.869-20.669 1.531-25-1 1.209-0.211 0.615-1.11 0-2 1.18 0.153 2.84-0.175 3 0.996zm-70 26.004c2.42 5.14 2.58-3.45 0 0zm-91-14c-3.637 4.363-11.694 4.306-14 10 4.57-2.78 14.18-5.8 14-10zm-31 11c6.798-4.868 15.46-7.873 21-14-7.8 3.2-17.94 9.38-21 14zm1-21.004c-16.433 8.566-33.791 16.209-49 26 1.985-0.434 6.515-2.298 4 1 3.736 1.069 2.85-2.483 6-2-0.097 2.57-3.903 1.43-4 4 13.804-6.824 31.796-15.393 44-23 1.055-0.657 6.062-1.353 4-4-4.262 3.799-10.549 5.009-16 8-5.13 2.814-9.708 8.637-15 8 5.04-2.471 9.982-5.207 15-8 4.8-2.672 10.504-4.83 14-9-4.817 0.541-9.845 6.122-13 5 3.15-2.185 7.95-2.723 10-6.004zm-15 6c3.743-1.977 10.887-3.523 10-7-11.122 6.766-23.774 13.211-35 19-4.066 2.097-9.333 3.118-12 7 12.17-5.2 26.19-13.3 37-19.004zm-35 11.004c-0.525 2.488-0.446 4.572-5 5 0.275-2.059 3.725-0.941 4-3-2.555 0.445-4.598 1.402-6 3 8.429 1.215 13.619-3.768 20-7 7.711-3.906 14.746-7.449 21-11 2.857-1.622 8.303-2.289 8-6-1.125 0.658-3.875 4.635-5 2 2.06 0.877 4.491-2.593 2-3-2.785 3.215-8.755 3.245-11 7 3.225 0.491 5.91-4.667 8-2-12.32 4.017-24.126 13.869-35 16 8.419-4.915 18.353-8.313 26-14-9.66 3.668-17.49 9.18-27 13zm12-11.004c8.991-0.685 15.27-9.385 23-8-7.981 3.776-16.832 6.345-25 10-6.99 3.128-15.383 8.128-20 13 16.548-7.119 31.469-15.864 47-24-9.64-1.979-17.07 6.019-25 8.996zm11-13c-15.647 6.123-32.266 15.361-43 22 2.503-0.831 3.927-2.74 7-3 0.306 2.306-2.889 1.111-3 3 5.224-0.465 9.895-6.742 14-5-4.821 2.179-10.125 3.875-14 7 10.585-1.616 19.133-9.926 27-11 1.792-4.554 15.32-6.004 20-11-17.081-1.856-29.627 14.207-43 16 11.73-5.938 23.78-11.56 35-18.004zm-47 21.004c11.664-3.208 23.953-11.749 34-17 3.051-1.595 11.457-3.183 8-5-13.83 7.497-29.431 13.233-42 22zm41-23.004c-7.259 1.013-10.823 3.314-16 6-9.654 5.008-21.227 10.202-26 16 12.952-8.384 28.73-13.941 42-22.004zm-26 10c7.493-3.951 15.916-6.949 22-12-15.072 6.595-28.938 14.395-43 22 7.291-0.42 13.756-6.184 21-10.004zm18-13c-11.11 3.931-23.023 10.805-32 16-2.865 1.658-8.327 2.212-8 6 13.501-7.169 27.88-13.461 40-22.004zm-4-1c-10.515 4.036-22.128 10.97-31 16-2.857 1.62-8.302 2.29-8 6 11.917-8.416 27.2-13.461 39-22zm-22 10c6.387-3.458 13.753-6.914 17-11-7.754 4.584-18.81 11.183-26 13 8.146-4.854 17.797-8.203 25-14-13.962 6.372-27.982 12.685-40 21 6.409-0.257 8.416-4.917 14-6-2.156 3.51-7.673 3.661-10 7 6.335-2.612 13.421-6.438 20-10zm-16 3c8.796-5.871 20.201-9.132 28-16-9.66 4.346-23.441 9.886-28 16zm24-17c-4.803 1.53-8.453 4.213-13 6 1.854-3.812 8.146-3.188 10-7-6.235 2.256-14.044 6.298-18 9-10.663 7.282 2.669-0.768 7-1-7.644 5.022-17.801 7.532-24 14 3.87-0.479 8.018-5.048 8-1 0.39-1.427 1.2-1.687 0-3 10.349-5.318 20.908-10.424 30-17zm-15 4c2.55-1.489 7.353-2.854 7-6-11.495 6.838-24.159 12.508-35 20 9.285-3.804 20.164-9.425 28-14zm-3-1c2.632-1.432 7.304-2.904 7-6-11.779 6.554-24.972 11.694-35 20 9.038-4.23 20.152-9.731 28-14zm-1-4c-8.397 4.065-0.799 2.557 5-2-3.261-0.406-3.6 1.323-5 2zm2-3c-7.655-0.591-13.044 10.406-18 6 4.929-2.071 10.663-3.337 13-8-10.985 6.348-24.137 10.53-33 19 7.205-1.424 14.62-12.308 21-8-6.572 2.428-14.143 3.857-18 9 12.48-5.186 23.914-11.419 35-18zm-16-2c-9.088-0.947-24.243 10.628-30 15 5.461-1.696 5.254-0.02 6 3 9.624-6.709 21.037-11.629 31-18-3.862 0.952-8.082 1.943-12 4-6.179 3.244-14.201 12.763-20 9 1.329-2.449 3.721 1.099 4-1 2.24-4.438 13.425-8.566 20-12 0.169 1.352-5.085 1.999-2 3 2.793-4.013 8.825-2.393 3-3zm-23 9c5.091-4.242 12.121-6.545 17-11-6.014 2.664-15.578 7.075-17 11zm14-12c-7.868 1.773-15.766 8.466-21 12-1.714 1.157-7.038 0.644-5 4 8.057-5.942 18.425-9.574 26-16zm-4 0c-8.934 0.821-19.187 8.748-27 14 10.661-3.005 17.56-9.773 27-14zm-5-1c-9.923 2.744-16.977 8.356-25 13 9.7-2.966 16.965-8.368 25-13zm-22 8c3.199-4.134 9.189-5.478 13-9-5.914 1.767-13.925 6.724-15 10 2.427-3.066 0.623 1.149 2 1 5.561-4.106 12.587-6.747 18-11-7.095 1.906-11.06 6.941-18 9zm-1-2c0.537-2.846 8.094-3.839 6-6-1.127 2.256-8.685 3.25-6 6zm-11 3c6.31-2.357 10.76-6.573 16-10-6.522 2.145-11.782 5.552-16 10zm25 4c-0.621 3.045-5.379 1.955-6 5 2.172-0.668 10.003-4.627 6-5zm22 6c-3.817 2.061-10.399 3.211-10 7 2.829-2.043 7.578-4.542 12-7 3.511-1.952 12.707-5.328 9-7-2.729 2.358-6.75 4.706-11 7zm-2 10c4.335-1.354 11.47-5.167 12-7-4.168 2.166-8.304 4.363-12 7zm51 9.004c-4.257 2.095-13.697 4.278-13 8 3.88-3.13 9.36-4.65 13-8zm325-95.004c6.344-0.323 11.879-1.454 16-4-6.73-0.059-13.39-0.052-16 4zm-33 6c3.05-1.951 6.868-3.132 10-5 1.182 1.151 3.535 1.132 6 1 3.896-5.036 13.204 0.76 17-5-5.771-1.391-9.977 4.238-10 0-7.31 2.701-21.54 3.782-23 9zm47-7c4.048 1.015 8.279 0.73 11-2-4.37-0.034-9.04-0.368-11 2zm6 2c5.046 1.504 11.765 1.048 16-1-4.76-1.22-12.52-1.803-16 1zm42 57c-3.972 2.38-10.947 7.028-11 10 8.006-7.328 19.675-10.992 20-26 2.358-1.983-0.092-1.983-1 0 0.303 5.636-2.53 8.136-4 12 1.753-6.019 3.228-16.163 6-18-1.088-4.405-9.208-11.604-8-15-0.045 0.125 4.209 3.339 3 1-2.305-4.458-5.351-7.273-13-9-0.118-5.801-10.133-7.882-15-12-2.27 1.73-8.386-0.385-9 3 3.695 0.638 9.962-1.295 12 1-1.758 0.575-5.875-1.208-6 1 7.596 5.404 19.576 6.424 26 13 1.789 6.211 5.825 10.175 8 16-2.49 7.847-6.59 14.079-8 23zm-2-40c-3.93-0.768-8.431-6.195-12-4 10.917 3.75 14.759 14.575 20 24 1.98-7.777-6.77-12.222-8-20zm-5 4c1.281-2.758-2.914-4.892-3-3 2.4-0.396-0.56 4.555 3 3zm12 18c-1.45-1.883-1.47-5.197-4-6 0.759 5.178-1.998 8.521 1 8-0.294 3.484-2.706-0.084-3 2 2.809 1.603-2.168 3.737-2 6 1.966 0.299 1.983-1.35 3-2 0.184 3.984-2.106 7.858-5 8 2.664 1.621-2.357 5.85-3 2 3.242 2.929-4.775 7.204-2 6 8.28-4.724 11.69-14.308 15-24zm-100-22c-3.767 4.803-8.44 15.244-8 25 1.383 30.669 48.677 40.959 73 27 3.225-1.851 12.554-10.044 14-12 10.799-14.603 4.877-36.448-6-45-9.892-7.778-26.151-10.905-42-9-14.21 1.708-24.63 5.873-31 14zm2-4c0.145-1.182 1.78-2.267 0-3-0.14 1.182-1.78 2.268 0 3zm-9 9c0.448-1.964 4.896-4.998 3-6-1.28 1.127-4.87 5.023-3 6zm-14 5c0.057-0.61 0.149-1.184 1-1-0.075 1.401 0.223 3.824 1 2-3.24-2.782 6.716-8.237 1-7 0.61 0.057 1.184 0.149 1 1-1.46 0.954-6.3 3.597-4 5zm10-4c-7.16 5.112 2.1-1.5 0 0zm103 5c0.125-2.503 1.908-3.13-1-4 0.17 1.497-0.36 3.691 1 4zm-109 4c0.737-2.263 3.812-2.188 4-5-2.78-0.373-6.48 3.42-4 5zm8-2c0.145-1.182 1.78-2.267 0-3-0.14 1.182-1.78 2.268 0 3zm103 1c0.896-0.158 0.513-5.53-1-2-0.26 0.596 0.41 2.105 1 2zm-112 9c0.271-3.717 5.979-10.672 6-10-5.26 1.561-6.94 6.79-6 10zm-4-5h2c0.055-1.278 1.282-1.385 1-3h-2c-0.06 1.279-1.28 1.385-1 3zm38 42c-2.117-1.432-8.434-1.666-4-4-9.803-3.198-14.661-11.339-20-19 2.314-1.06-0.474-7.141-2-4 3.493 2.287-2.362 3.543-1 7 1.94 3.726 5.662 5.671 7 10-4.362-2.304-5.545-7.788-9-11 1.047 11.538 14.246 13.482 23 18-4.645 0.114-5.685-3.401-6 0-8.054-3.613-13.765-9.568-20-15 5.006 11.661 17.165 16.168 27 23 2.487 0.154 3.096-1.571 5-2-0.688 2.689 2.067 1.933 3 3 5.983-2.242 12.333 0.729 19 0 2.327-0.254 5.447-2.505 9-3 21.873-3.046 47.219-22.154 40-47 1.343 13.349-6.708 22.617-9 29 0.012-1.009 1.753-1.258 2 0-12.125 6.544-24.065 18.597-42 16 0.556 0.003 1.135-0.81 0-1-6.97 4.537-20.74-5.07-22 0zm-1-5c-4.467 0.1-8.023-5.932-11-4 3.54 0.828 8.02 5.934 11 4zm-29-35c0.145-1.182 1.78-2.267 0-3-0.14 1.182-1.78 2.268 0 3zm105 1c4.96-1.33 1.56-4.723 0 0zm-112 1c0.145-1.182 1.78-2.267 0-3-0.14 1.182-1.78 2.268 0 3zm6 1h2v-2h-2v2zm-2 5c-0.556-0.003-1.135 0.81 0 1 0.901-2.263 1.238-4.397 0-6-1.87 1.905-0.11 2.513 0 5zm-4 3c-1.509-1.824-1.062-5.605-3-7 0.08 2.654 1.76 8.815 3 7zm10-6v2c2.461 1.555 2.94-3.396 1-3-0.06 0.61-0.15 1.184-1 1zm-9 13c2.842-1.159 5.937-2.063 6-6-2.86 1.138-4.86 3.138-6 6zm1-6c-0.145 1.182-1.78 2.267 0 3 0.14-1.181 1.78-2.267 0-3zm108 4c-5.08 5.584 3.98-4.384 0 0zm-107 5c3.555 1.555 0.604-3.396 3-3 0.239 1.535 1.646 0.147 2-1-2-1.886-4.65 1.229-5 4zm-375 4c3.319-1.378 10.23-4.396 9-7-2.83 2.504-6.81 3.857-9 7zm4 0c0.326 1.676 8.715-5.053 12-7-5.829 0.505-7.553 5.114-12 7zm-1-5c-6.138 1.184-2.506 4.816 0 0zm10 6c-10.082 4.772 1.969 0.441 0 0zm459 8c1.182-0.485 2.267-1.066 3-2-1.34-0.154-5.51 1.571-3 2zm-87 8c-5.754 1.246-13.542 0.458-18 3 8.896-0.771 19.807 0.474 25-4-3.11 0.043-6.97-4.297-7 1zm-6 4c5.91-0.11 16.701-0.605 18-2-6.63 0.037-12.91 0.426-18 2zm19 1c1.182-0.485 2.267-1.066 3-2-1.34-0.154-5.51 1.571-3 2zm-2-1c-1.758 0.575-5.875-1.208-6 1 1.76-0.575 5.88 1.209 6-1zm-13 1c-1.453 0.547-5.169-1.168-5 1 1.45-0.546 5.17 1.169 5-1zm-17 5c1.043-0.5 5.854-3.75 3-2-2.04-0.854-6.21 0.872-3 2zm-8 0c2.48 0.147 4.853 0.186 5-2-2.48-0.146-4.85-0.186-5 2zm-5 0c3.37 3.038 3.03-3.697 0 0zm-33 9.004c1.721 0.054 2.563-0.77 3-2-1.72-0.06-2.56 0.77-3 2zm-13 5c1.124-1.875 3.876-2.125 5-4-2.4 0.01-7.05 2.84-5 4zm-57-2c-6.4-1.16-2.2 3.05 0 0zm25 3c1.182-0.485 2.267-1.066 3-2-1.34-0.16-5.51 1.57-3 2zm-36-1c-6.4-1.16-2.2 3.05 0 0zm-14 5c1.758-0.575 5.875 1.208 6-1-3.05 0.39-5.09-2.63-6 1zm70 6c-0.8 6.05 4.58 0.66 0 0zm-172 5c1.125-1.875 3.875-2.125 5-4-2.4 0.01-7.05 2.84-5 4zm120 46c-3.1-0.1-5.547 0.453-7 2 1.7 1.57 6.96 1.08 7-2zm-1 4c2.874 0.207 5.08-0.254 6-2-2.65 0.01-5.89-0.56-6 2zm46-19c-0.459-0.212 2.173-1.941 2-2-2.799-0.945-4.818 3.826-8 1 2.224-0.776 5.423-0.577 6-3-4.533-1.031-4.365 0.234-4-3-0.562 3.253-8.594-2.103-6 1 2.717 0.616 4.684 1.983 6 4-1.912 0.466-4.305-3.082-4 1 5.002 3.963 6.643 2.836 12 4-16.384 5.283-32.286 11.047-47 18 4.16 1.127 8.63 1.08 11-2 5.451 2.089 13.443-7.194 21-3-7.438 1.562-13.77 4.23-21 6 3.292 0.042 4.979 1.688 9 1 0.174-0.957 0.091-1.746 1-2 7.124-1.989 9.913-3.084 14-4-0.776-0.224-1.973-0.027-2-1 8.267-1.067 14.68-3.987 19-9-5.247 2.128-16.502 5.13-17 7-1.758-0.575-5.875 1.209-6-1 7.717-0.25 11.994-6.461 22-7-1.31-5.64-4.88-4.57-8-6zm-8 5c2.48 0.147 4.853 0.187 5-2-2.48-0.15-4.15 0.51-5 2zm-12-5c3.938 0.062 6.84 1.16 8 4-3.45-0.474-6.029-0.07-8 2 1.89 0.443 6.026-1.36 5 2-6.672-0.328-11.034-2.966-16-5 0.843 5.229 14.545 2.301 9 8 3.578-1.756 8.789-1.877 11-5-1.721-0.395-2.563 1.484-3 0 1.512-2.488 6.615-1.385 8-4-3.92 0.68-12.35-4.7-14-2zm9-1c-2.555 1.078-3.5-4.305-5-1 1.5-0.02 4.09 3.71 5 1zm-21 12c-3.096-1.301-9.641 1.357-12 4 1.865-0.175 7.109 3.671 10 0-2.494-1.922-4.109 1.526-6-1 2.003-3.763 11.701-0.013 6 0 5.144-0.012 4.975 0.752 11-3-3.499-1.404-6.401 2.805-8 0 1.22-0.113 2.367-0.299 2-2-4.146 1.146-3.896-2.104-7-2-0.96 3.62 4.49 0.84 4 4zm-247 16c-2.431 1.279-5.782 6.826-8 5 0.012-1.321 1.752-0.914 2-2-3.457 1.543-8.245 1.755-9 6 6.451-2.58 15.09-2.68 15-9zm265-32c-9.67 2.72 3.36-0.05 0 0zm5 1c-3.8-2.77-4.4 3.66 0 0zm-83 10c-0.914-1.753-0.344-4.989-2-6 0.6 2.06-1.61 6.94 2 6zm43 0c2.6-0.134 6.521-4.056 5-5-0.45 2.88-4.3 2.36-5 5zm7-2c2.503 0.17 3.131-1.536 4-3-2.5-0.17-3.13 1.53-4 3zm19 1h2c1.555-2.461-3.396-2.94-3-1 0.61 0.05 1.18 0.15 1 1zm-48 3c3.489-0.511 5.552-2.447 8-4-4.75-0.76-5.48 2.52-8 4zm13-4c-5.082 5.425-0.671 2.92 3 0h-3zm4 0c1.98 4.61 6.49-1.21 0 0zm17 2c2.279 0.279 3.759-0.241 4-2-1.77 0.22-5.01-1.01-4 2zm-53 3c1.72 0.054 2.563-0.77 3-2-1.72-0.06-2.56 0.77-3 2zm38 0c2.279 0.279 3.759-0.241 4-2-2.28-0.28-3.76 0.24-4 2zm11-1c-1.278-0.055-1.385-1.281-3-1-1.56 2.46 3.4 2.94 3 1zm-14 2h2c1.555-2.461-3.396-2.94-3-1 0.61 0.05 1.18 0.15 1 1zm31-2c-6.4-1.16-2.2 3.05 0 0zm-89 6c3.751 0.041 9.144-3.465 8-5-2.7 1.63-5.3 3.36-8 5zm42-5c-2.072 0.595-6.569-1.236-7 1 2.07-0.6 6.57 1.23 7-1zm-23 3c2.279 0.279 3.759-0.241 4-2-2.28-0.28-3.76 0.24-4 2zm45-1c-4.04-3.52-2.36 3.21 0 0zm-74 3c1.827 0.045 6.399-2.111 4-3-0.27 2.06-4.43 0.24-4 3zm6-1c1.78-0.553 4.153-0.514 5-2-2.48-0.15-4.85-0.19-5 2zm15 1c1.743-0.924 5.367 0.034 5-3-2.33 0.33-4.31 1.02-5 3zm-53 2c1.523-1.523-1.539-5.765-2-3 0.06-0.38 1.85 3.15 2 3zm25-1c1.827 0.045 6.399-2.111 4-3-0.27 2.06-4.43 0.24-4 3zm25-2c-7.2 3.52 3.03-1.49 0 0zm-32 3c2.555-0.445 4.598-1.402 6-3-2.98 0.02-6.09-0.1-6 3zm83-1c1.991-2.426 4.271 1.688 5-2-2.37-0.59-7.35 1.16-5 2zm97 8c-3.352-0.22-7.019 0.295-10 0-9.268-0.916-15.565-6.114-21-7 1.086 0.239 2.401 1.646 1 2-1.021-2.312-4.598-2.069-8-2 1.555 3.555-3.396 0.604-3 3 6.484 0.2 12.022 6.621 18 4-2.483 0.15-4.15-0.517-5-2 3.138 1.211 11.131 1.936 5 4 7.03-1.98 20.23 1.36 23-2zm-48-4c1.273 1.393 4.898 0.435 5 3-1.496 0.171-3.69-0.357-4 1 2.594 2.475 4.904-0.973 9 0 7.981 4.227 25.994 6.018 32 3-4.565 0.712-15.702-2.934-9 1-12.97-0.04-22.43-8.9-33-8zm16 7c0.34 4.326 7.918 1.416 10 4-2.453 2.449-5.767-2.17-6 2 4.329 0.329 6.622-1.378 8-4-4.85 0.18-8.54-0.8-12-2zm3 3c-4.008-0.031-9.687-3.595-12-2 0.93 3.11 8.94 4.34 12 2zm-171-5c0.097-2.57 3.903-1.43 4-4-2.14-0.05-6.88 2.32-4 4zm5-8c-2.932 0.067-3.714 2.286-5 4 2.38-0.63 4.66-1.35 5-4zm0 4c2.967-0.366 4.933-1.733 6-4-2.97 0.36-4.93 1.73-6 4zm30-4c-0.1 0.033 0.08 0.906 0 1-5.48 3.88 7.08-3.36 0-1zm-9 3c2.48 0.147 4.853 0.187 5-2-2.48-0.15-4.85-0.19-5 2zm-8 2c1.753-0.914 4.99-0.344 6-2-2.72-1.07-4.68-0.64-6 2zm-35 2c0.3-1.177 5.295-2.511 2-4 0.51 1.98-5.52 2.28-2 4zm31-3c-7.88 4.56 5.25-3.04 0 0zm-24 4c2.279 0.279 3.759-0.241 4-2-1.86 0.13-3.34 0.66-4 2zm-37 2c2.279 0.279 3.759-0.241 4-2-1.891 0.225-2.207-1.127-4-1v3zm196 1c4.512 1.026 10.613-2.374 15-2-5.01-1.53-12.47 0.51-15 2zm63 1c-5.304-0.646-13.698-6.372-14-1-2.544 2.61 9.322-0.705 10 2-10.006 0.72-19.393-2.944-27 1 1.266 2.401 7.885-0.552 9 2-2.48-0.147-4.853-0.187-5 2 6.126-2.022 12.821-2.526 19-2 12.215 1.041 26.911-1.625 35 1 1.15-2.8 1.971-1.749 4-2 10.77-1.334 34.854-1.299 40 1-4.753-0.58-9.222-1.445-15-1-3.183 1.378 3.533 0.989 5 1 3.855 3.456 8.643 0.729 14 0 1.499-0.204 11.557 0.849 8-1h-4c-1.464-0.767-0.932-1.656-3-2-16.865-2.8-40.432-0.82-59-3h36c-1.712-2.288-7.633-0.367-11-1-15.669 0.665-33.997-1.33-48 1 6.439 1.227 15.205 0.129 21 2-4.79-0.48-9.93 0.61-15 0zm77-1c-6.877 1.188-13.548-3.089-19 0 6.34-1.11 17.4 2.95 19 0zm10 2c2.88-1.675-5.109-0.796-7-1-0.055-1.052-1.282-0.787-1 1 0.22 1.42 4.98-0.93 8 0zm-373 2c6.138-1.19 2.506-4.82 0 0zm229-1c-10.57-2.79-7.7 2.45 0 0zm149 1c-7.61-0.328 6.692 4.396 5-1-2.611 0.829-5.486-3.024-7 0 0.78 0.22 1.97 0.02 2 1zm16 2c-3.419-0.915-7.164-1.503-10-3-0.16 3.87 7.71 4.9 10 3zm-163 2c0.314-2.727-5.812-4.082-7-2 2.83 0.16 4.17 1.83 7 2zm26-3c-1.453 0.547-5.169-1.169-5 1 1.45-0.55 5.17 1.16 5-1zm25 4c4.608-0.059 8.871-0.462 12-2-2.72-1.49-9.08 0.5-12 2zm52-1c3.822 0.155 7.281-0.052 9-2-3.37 0.29-6.83 0.5-9 2zm-102 1c3.888 0.77 9.049 0.687 13-1-2.97-0.88-9.48-0.48-13 1zm49-2c-3.367 0.633-9.288-1.288-11 1 3.37-0.64 9.29 1.28 11-1zm52 8c-1.147-0.309-6.604-1.958-4 0 1.862 0.138 3.342 0.658 4 2-2.279 1.373-3.759-2.578-4 0 1.125 2.063-0.063 0.875 2 2-2.146 2.551-6.622 8.005-6 10 5.358-9.642 16.63-13.37 23-22-5.761 0.239-9.188 2.812-13 5-1.589 0.229-13.338-3.062-13-1 4.29 0.7 8.37 1.63 11 4zm-11 24c0.055 1.052 1.282 0.787 1-1 0.59-3.777 5.193-8.762 4-11-2.06 3.6-4.44 6.9-5 12zm-13-29c2.767 1.32 3.434-3.953 2-1-1.4-0.08-3.82 0.22-2 1zm65-1c-2.826-0.199-12.132-1.004-16 2 6.13-1.38 27.48-1.19 16-2zm-95 1c-1.758 0.575-5.875-1.209-6 1 3.05-0.4 5.09 2.62 6-1zm31 1c0.76 1.653 8.241 1.653 9 0-1.61-1.5-5.01 0.86-9 0zm74 0c-0.606-0.576-4.743-2.341-5 0 1.78-0.6 4.15 2.93 5 0zm-113 0c-1.453 0.547-5.169-1.169-5 1 1.45-0.55 5.17 1.16 5-1zm30 0c-1.453 0.547-5.169-1.169-5 1 1.45-0.55 5.17 1.16 5-1zm72 0c-3.367 0.633-9.288-1.288-11 1 3.37-0.64 9.29 1.28 11-1zm13 2c1.862-0.138 3.342-0.658 4-2-2.28-0.28-3.76 0.24-4 2zm-103-1c-6.4-1.16-2.2 3.05 0 0zm68 3c-3.275 0.763-11.115 2.167-9 5 4.481-4.185 13.481-3.852 18-8-3.63 2.27-13.49 0.15-9 3zm40-1c1.496-0.17 3.69 0.357 4-1-1.33-1.3-3.72-1.32-4 1zm-122-1c-1.453 0.547-5.169-1.169-5 1 1.45-0.55 5.17 1.16 5-1zm125 3c1.888-0.019 8.14 3.303 6 1-0.613-1.387-3.85-0.15-4-2 3.287 0.729 1.531-1.987 0-2 0.3 1.96-1.35 1.98-2 3zm19 58c0.043-1.377-0.471-2.196-1-3 4.824-1.36 9.675-12.74 8-14-5.034 13.633-14.95 22.384-30 26 4.9 2.986 17.725-7.509 20-8-2.951 1.382-4.049 4.618-7 6-3.34 1.66-7.66 2.34-11 4-4.665-0.708-4.665 1.708 0 1 2.659-0.89 7.25-2.85 8 0 2.091-1.909 4.775-3.225 8-4-4.231 4.769-12.275 5.725-19 8-0.428-2.762 3.729-0.938 4-3-7.769 0.471-14.72 2.806-20 3 1.182 0.485 2.267 1.066 3 2-2.182 0.087-6.468-2.737-7-1 8.94 5.06 25.436-2.596 33-2-3.613 2.738-15.713 2.262-16 5 2.312-0.304 5.064-2.135 3 1 27.245-3.09 49.697-16.302 49-44-4.094 4.906-2.164 15.836-7 20 0.679-5.321 3.551-8.449 3-15-4.37 0.297-1.574 7.76-5 9-0.149-2.955 2.906-7.059-1-8-0.637 4.829-2.019 8.841-4 9 0.09-0.007-0.401-2.693-1-2-1.739 2.013 0.629 6.37-3 5 1.523-1.826 2.053-7.653 5-5-1.237-3.32 5.196-7.087 0-8-1.867 1.682-1.357 8.742-4 4-2.521 9.146-7.417 15.917-15 20 1.36-2.98 4.52-4.16 7-6zm22-4c-4.16 5.61 1.66 2.85 0 0zm2-3c-1.74 6.61 2.55-8.09 0 0zm-6-10c0.274-2.933-4.007-3.714 0-5 1.889 0.111 0.694 3.306 3 3 0.839-1.161 1.319-2.681 1-5-3.736 1.069-2.851-2.483-6-2-0.72 2.39-2.91 9.54 2 9zm-3-9c-2.492-2.125-2.917 0.305-6-4 0.595 2.071-1.236 6.569 1 7 3.339-4.545 0.161 5.744 4 4-0.58-3.25 0.68-4.66 1-7zm-12-15c-2.935-5.055-17.659-15.169-23-17-16.435-5.636-43.561-0.825-55 8-6.901 5.324-17.774 20.826-15 33 1.826 8.011 12.473 15.604 19 19 25.122 13.072 56.77 6.664 72-10 0.132-0.144 0.896 0.159 1 0 4.98-7.68 5.88-24.6 1-33zm-9-17c-2.511-1.768-5.508-1.941-7-1 1.35 0.74 6.98 2.22 7 1zm-72 6c1.721 0.054 2.563-0.77 3-2-1.72-0.06-2.56 0.77-3 2zm79 0c0.943-2.487-5.724-0.292-2 0 1.64-0.09 4.35 1.66 2 0zm-4 3c6.53 7.11-0.33-2.16 0 0zm10 1c-1.273-0.203-4.898-2.907-5-1 1.18 0.29 3.78 4.02 5 1zm-91 2c-1.195 1.585-5.267 11.348-3 7 1.477-2.233 6.332-6.276 5-8-0.22 0.78-0.84 1.16-2 1zm96 2c-0.613-0.292-3.85-2.487-4 0 0.61 0.29 3.85 2.48 4 0zm-10 1c4.03 5.04 4.68-3.49 0 0zm5 3c2.483-1.301 4.15 2.934 5 0-1.503-0.279-4.211-4.3-5-2 1.21 0.21 0.62 1.11 0 2zm7 1c2.42 5.14 2.58-3.45 0 0zm-5 4c3.627-3.286 3.214 4.286 6 1-1.406-0.261-1.14-2.193-2-3-3.422 1.632-3.005-0.119-5-2-0.22 1.89 1.13 2.2 1 4zm14 0c-2.348-0.319-2.238-3.095-4-4-0.008 2.754-1.798 5.295-4 3 0.564 2.436 0.856 5.144 4 5-2.92-5.8 3-3.85 4-4zm-10 5c0.054-1.721-0.77-2.563-2-3-0.05 1.72 0.77 2.56 2 3zm7-3c1.18 6.13 4.82 2.5 0 0zm-2 5c-1.177-0.3-2.511-5.295-4-2 0.96 0.52 3.32 4.48 4 2zm4 1c-1.427-0.239-1.687-1.646-3-2-0.88 2.06 2.59 4.49 3 2zm3 0c1.18 6.13 4.82 2.5 0 0zm3 9c0.161-0.696-0.35-5.819-1-3-0.88 3.8 0.54 5 1 3zm-112 14c-2.243 6.476 10.961 5.535 13 11 0.274-2.358 3.726 0.092 4 1-2.182 0.638-3.182-2.834-3 1 2.826 0.826 2.591-1.409 5-1-2.962 1.989 3.609 5.618 5 3-2.483 0.15-4.15-0.517-5-2 5.485 3.515 17.706 0.295 21 6 4.35-2.317 14.025 0.692 17-3-14.532 3.154-27.712-4.741-39-5-0.102-1.122 1.453-1.557 0-2-1.713 1.04-11.873-2.349-10-5-1.891-0.224-2.206 1.127-4 1-1.105-0.677-5.188-3.323-3-4 1.834-0.052 3.386 5.125 5 2-4.032-1.833-11.404-10.325-11-10 0.58 3.42 0.72 7.28 5 7zm25 17c4.992-0.625 9.578 4.377 14 1-3.69-0.68-10.96-3-14-1zm-12 1c-0.872 2.318 5.088 2.299 2 1-2.719-1.232-3.581-2.768-4-4-1.457 2.034-6.063-1.203-7-3 0.089 1.367 7.193 1.367 4 0-3.798-0.092-10.093-0.578-6-4-7.235 1.433-9.521-9.473-14-14 4.11 12.22 12.8 19.87 25 24zm-17-17c-3.063-0.937-2.457-5.543-5-7-0.41 3.79 3.49 8.44 5 7zm57 23c-1.453 0.547-5.169-1.169-5 1 1.45-0.55 5.17 1.16 5-1zm-402-199c3.983-1.25 13.149-7.2 12-7-4.827 1.507-9.091 3.576-12 7zm70 19c-10.63 4.224 2.08 0.55 0 0z"/>
	<path d="m349 87.396c0.615 0.89 1.209 1.789 0 2 4.331 2.531 24.447 2.869 25 1 2.919-1.874 8.42 2.213 13 2 0.184 0.851-0.39 0.943-1 1 0.163 1.163-0.221 1.779-1 2-2.134 0.467-1.904-1.429-2-3-20.694 0.192-42.574 1.064-61 6 2.941 2.871 10.05-3.879 14 0 1.132-3.896 20.518-3.976 30-5-2.275 1.725-5.861 2.139-10 2 0.076 1.683-2.06 3.741-6 4 0.147-2.186 2.52-2.147 5-2-2.483-3.061-6.069 1.197-10 0 0.161 1.172 1.823 0.843 3 1-4.583 0.479-9.43 1.009-14 0 0.14 1.92-3.621 3.822-8 4 0.92-1.747 3.126-2.207 6-2-4.132-3.086-7.959 2.673-11 4-3.008-1.498 3.429-1.789 3-4-4.961 0.372-5 5.667-10 6 0.447-2.886 4.303-2.364 5-5-4.119 1.214-7.261 3.406-12 4 2.9 1.598 1.191 2.555-2 3 0.027-0.973 1.224-0.776 2-1-2.287-3.493-3.543 2.362-7 1 5.743 5.146 10.025 6.23 16 1-0.095 4.673-6.75 4.327-4 9-2.055-0.591-4.165-1.924-2-4-5.86-0.195-8.14-4.483-14-2 0.027 0.973 1.224 0.776 2 1-0.85 2.934-2.517-1.301-5 0 2.409-1.547 4.273-2.1-1-2 1.273-4.238 3.262 0.933 7 0-3.254-3.079-8.812-3.854-13-6 5.411-2.922 11.476-5.191 18-7-6.05-1.366-13.297 4.69-20 6 0.732 0.934 1.818 1.515 3 2-5.602 0.634-7.273 3.491-15 2 2.926 1.407 3.642 5.025 4 9 2.964-1.453-1.317-3.9 0-7 2.994 1.006 1.974 6.026 3 9 2.964-1.453-1.317-3.9 0-7 3.891 0.443 2.986 5.68 4 9 1.484-1.849 1.916-4.751 2-8 9.393 2.274 6.573 16.76 11 24-1.755 1.578-2.075 4.592-5 5 0.708-3.708-1.708-4.292-1-8-2.853 2.275 1.405 5.861 0 10 5.154 4.618 0.812 0.385-2 2-3-4.667-3.046-12.288-5-18-2.176 5.674 4.761 15.692 3 21-1.746-0.92-2.207-3.126-2-6-2.958 1.752 0.577 5.328 0 8-2.635 0.302-3.282-1.385-3-4-0.251 3.899-1.595 4.543-6 6-2.405-4.595-2.7-11.3-4-17-1.994 4.357 2.331 10.98 2 17-4.884-2.663-4.42-11.27-6-17-0.795-2.882-3.099-6.991-3-12-1.78 9.124 5.582 17.744 5 29-1.711-0.044-2.59 0.743-3 2-2.252-2.414-2.114-7.219-3-11-2.221 1.965 1.311 6.632 0 11-5.875-10.125-6.817-25.183-11-37-0.39 11.442 8.168 27.766 8 39-5.95-6.884-7.564-26.312-12-38 0.87 10.47 5.446 25.883 9 37-0.843 2.957-1.877-1.455-3-1-0.752 0.305-0.854 2.964-1 3-0.755 0.188-3.572-4.061-3 0-1.172-0.161-0.843-1.823-1-3-1.152 2.515-4.187 3.146-6 5-1.172-0.161-0.843-1.823-1-3-0.216 2.066-6.825 5.851-6 0-2.396-0.396 0.555 4.555-3 3 0.726-3.059-1.725-2.941-1-6-3.024 1.514 0.829 4.389 0 7-1.778 0.889-2.542 2.792-6 2 0.147-2.187 2.52-2.147 5-2-1.332-5.367-7.872 4.212-7-4-1.324 6.89-7.203 3.905-14 6-1.14-2.193-2.581-4.086-2-8-1.794-0.127-2.109 1.225-4 1 1.378 1.289 0.99 4.344 1 7-3.73 0.396-0.42-6.246-3-7-1.65 0.14 1.047 4.171 0 7-1.357-0.31-0.83-2.504-1-4-1.357 0.31-0.83 2.504-1 4-2.365 2.077-0.009-5.14 0-7-1.342 0.202-1.862 4.153-2 0-2.754 0.26 3.266 8.284-2 8-0.12-2.881 0.546-6.546-1-8-2.738 1.511 2.225 6.748-1 9-2.889-0.444 0.889-7.556-2-8-2.805 1.599 1.404 4.501 0 8-2.312-1.022-2.069-4.598-2-8-2.208 0.125-0.425 4.242-1 6-1.378 3.183-0.99-3.533-1-5-2.208 0.125-0.425 4.242-1 6-2.498 3.704 1.148-7.054-3-5-3.567 3.066 2.695 3.964 0 7-3.364 0.364-1.667-4.333-3-6-2.726 0.92 1.397 3.126 0 6-3.364 0.364-1.667-4.333-3-6-3.055 1.849 1.154 4.751 0 8-4.682 1.015 0.179-7.512-3-8-2.228 1.021 1.308 4.598 0 8-3.469 0.469-0.573-5.427-3-6-2.432 0.817 1.982 5.272-1 7-1.377-1.548-2.013-6.002-1-7-4.193-0.367-0.714 3.258-1 5-3.36 1.026-1.557-3.11-2-5-3.646 0.758 0.095 3.192-1 7-1.747-0.92-2.207-3.126-2-6-1.633-0.45-1.633 5.45 0 5-1.73 2.937-3.64-2.266-3-5-1.633-0.45-1.633 5.45 0 5-1.713 3.224-2.713-2.505-3-4-2.208 0.125-0.425 4.242-1 6-1.483-0.85-2.15-2.517-2-5-1.434 1.182-1.895 5.304-2 0-2.226 0.42-0.783 5.306 0 6-0.838 2.349-2.589-2.629-2-5-2.693 1.183 0.004 5.214 0 7-2.594-0.42-1.83-3.188-3-7-3.752 0.785 2.63 6.19-2 5v-4c-3.541 0.876-2.459 0.124-6 1 0.777 0.89 1.075 2.258 1 4-1.388 3.193-0.612-3.911-2-4-3.024 1.514 0.829 4.389 0 7-3.618 0.604 0.162-5.181-4-6-3.357 0.914-0.496 1.859-1 5 0.973-0.027 0.776-1.224 1-2 3.215 0.944-4.211 8.155-4 3 0.851-0.184 0.943 0.39 1 1 2.693-1.183-0.004-5.214 0-7-1.342 0.202-1.862 4.153-2 0-1.172 0.161-0.843 1.823-1 3-1.598-4.356-2.555 2.412-3-2-2.726 0.92 1.397 3.126 0 6-1.483-0.85-2.15-2.517-2-5-1.172 0.161-0.843 1.823-1 3-1.444-2.382-1.517-2.454-3-3-3.259 1.645 1.829 5.426-1 7-2.246-0.42-0.027-5.306-2-6-2.168-0.169-0.453 3.547-1 5-1.85-0.15-0.614-3.387-2-4-2.168-0.169-0.453 3.547-1 5-1.666 3.176-0.334-4.884-2-5-2.104 2.815-0.646 5.136-3 1-2.831-0.164 0.831 6.164-2 6-1.53 2.985 1.423-4.829-2-5-2.578 0.241 1.373 1.721 0 4-1.342-0.658-1.862-2.138-2-4-1.379-0.465-5.509 3.168-4 3-0.474 0.053-1.444-1.729-1-2-0.485 0.297-0.927 2.975-1 3-1.167 0.412-0.527-1.757-1-2-1.516-0.777-1.71 2.951-2 3-1.214 0.204-0.552-1.976-1-2-0.563-0.03-6.484 3.826-5 0-1.342 0.658-1.862 2.138-2 4-1.172-0.161-0.843-1.823-1-3-4.706 3.791-11.779-0.862-15 6-1.874 2.513-0.109-1.663 0-3-3.669-0.336-5.131 1.536-6 4-2.533-4.134-11.88 1.341-17 0-1.377 1.001 0.427 1.648-2 3-1.454-0.443 0.102-0.878 0-2-6.938 0.472-17.621 1.009-24 4-1.575-4.269 6.406-7.573 10-10 3.297 2.721-4.114 3.152-4 6 5.581-1.419 6.145-7.855 13-8-1.724 3.276-5.276 4.724-7 8 6.652-2.015 6.7-10.634 15-11-1.609 3.725-5 5.666-7 9 4.866-5.434 18.021-16.848 31-16 3.399-2.934 8.595-4.072 14-5-2.489 2.511-4.641 5.358-7 8 2.835 0.803 6.04-6.603 9-9 35.006-10.661 69.754-21.58 103-34 2.819-4.534 13.3-9.11 20-13-11.752 3.584-24.297 15.033-39 19-1.892-1.315 4.582-2.685 6-4-4.695-1.007-9.692 6.292-16 7 1.468-3.865 5.872-4.795 9-7-3.305-1.712-9.044 7.284-13 5 5.294-4.039 10.924-7.743 17-11-6.108-0.096-11.849 8.808-20 10 6.532-6.802 15.545-11.122 24-16-9.556 0.784-16.153 13.175-29 14 7.104-7.896 18.681-11.319 27-18-11.07 3.649-20.44 14.155-30 16 7.41-5.59 15.368-10.632 24-15-8.317 1.023-16.573 10.755-26 14 6.55-5.117 13.386-9.948 21-14-7.648 0.694-14.687 10.641-24 13 5.766-5.567 12.698-9.969 20-14-7.56-0.143-15.482 13.077-24 12 2.899-4.434 8.438-6.229 13-9-1.2-1.313-0.39-1.573 0-3-3.285 1.895-3.567 4.56-8 7-2.597-1.703 4.252-2.335 4-5-4.898 2.435-8.342 6.324-15 7 3.077-4.759 12.584-5.56 12-11 3.938-1.089 10.855-4.441 10-7 3.688-0.455 9.315-3.66 14-6-2.245-0.871-8.215 3.088-11 5-1.401-0.354-0.086-1.761 1-2-5.757 1.586-15.352 7.974-23 11 5.169 0.154 12.471-6.184 19-8-3.095 5.021-13.308 5.581-13 11-3.284 1.017-10.916 7.338-11 5 3.756-1.577 5.936-4.731 10-6-3.594-1.231-7.916 5.396-13 6-2.901-2.886 2.711-2.364 3-5-2.503 0.831-3.927 2.74-7 3 2.838-3.213 7.079-5.892 11-8 11.166-6.001 24.833-11.652 36-19 1.338 2.049-0.288 4.201 3 1 3.141 1.935-2.94 2.965-4 4 0.621 1.515 5.379-1.209 6-3 2.709 0.903-2.286 2.237-2 4 2.111-0.889 2.956-3.044 6-3-8.034 6.966-17.898 12.102-27 18 1.2 1.313 0.39 1.573 0 3 5.376-2.047-1.568-2.114 6-6 2.709 0.903-2.286 2.237-2 4 9.177-5.823 18.894-11.106 28-17 2.935 1.775 3.386 1.365 6 2-7.863 4.471-14.408 10.258-23 14 2.142 1.751 6.538-2.752 9-4 2.678 1.785-3.883 2.705-4 5 8.545-3.53 16.623-12.609 25-13-5.609 4.725-12.757 7.909-19 12 6.692-0.651 13.491-9.835 23-11-3.603 5.397-10.235 7.765-16 11 6.729 1.113 13.126-11.159 21-9-4.827 3.173-8.807 7.193-15 9 6.586 1.571 10.201-8.454 19-8-2.849 4.151-8.009 5.991-13 8 5.654 2.156 11.758-8.694 18-6-10.53 6.804-21.426 13.24-33 19 12.113-2.225 22.528-14.803 37-18 0.212 3.212-3.566 2.434-5 4 2.271 2.473 6.361-5.694 10-2-10.665 5.002-18.067 13.266-31 16 2.198 2.455 7.494-0.449 9-2 4.484 6.165 3.842 14.461 9 18-2.883-0.032-1.146 6.544 2 8 1.835-6.852-3.139-15.516-4-23-0.733-0.934-1.818-1.515-3-2-1.574-2.516 4.713 1.968 8 1-3.923-3.152 0.8-1.244 4-1-0.532-2.802-4.818-1.849-7-3 4.437-3.391 9.223 1.41 13 2 0.585-4.252-6.585-0.748-6-5 5.267-0.267 6.785 3.215 13 2-0.351-3.316-5.764-1.569-9-2 3.334-5.45 9.422-0.521 16-1-1.811-3.906-4.439-1.12-8-2-0.126-0.031 1.255-1.299 2-1-3.764-1.509-6.87 0.721-12 3-2.399-0.889 2.174-3.044 4-3-5.226-0.542-12.15 5.837-18 8 3.46-4.217 13.183-10.811 23-12-0.658 1.342-2.138 1.862-4 2 1.915 2.809 5.213-1.374 8-1 3.804 6.267 12.373 2.668 19 2-2.484-1.516-6.069-1.931-10-2 4.067-4.272 8.075 1.414 15 0-0.31-1.357-2.504-0.83-4-1 7.763-1.31 12.114-3.947 13 8 2.363-2.522-1.171-9.196-1-10 2.434-3.011 4.02 3.247 4 6 3.271-0.978-3.71-8.233 3-7-2.711-1.622-7.379-1.288-11-2 1.752-2.958 5.328 0.578 8 0 1.008-3.008-2.228-1.772-4-2 5.291-2.066 9.303 0.186 16-1-0.027-0.973-1.224-0.776-2-1 2.368-0.159 20.197-6.38 30-9-4.122-2.089-9.136 3.507-15 3 9-6.549 20.172-5.104 34-6 3.235 1.151-2.686 1.132-4 1 3.479 3.087 8.194-1.096 13 0 0.169-2.168-3.547-0.453-5-1 0.971-2.221 12.899 1.693 17-2-0.394-1.926-11.812-1.278-9 0-4.168-0.407-13.041 1.082-20 1-4.88-0.319 0.964-1.58 3-1 10.881-1.212 20.739-2.931 31-2 4.686 0.647 11.975-1.308 15 1h-8s-5.333 0-8 0c-0.16-1.175-1.82-0.847-3-1.004zm-47 19.004c6.018-1.649 11.149-4.184 16-7-5.97 1.69-12.17 3.16-16 7zm-29 5c-0.17 1.496 0.357 3.69-1 4 0.132-1.314 0.151-7.235-1-4 0.058 4.276 1.342 7.325 2 11-0.409 3.606 1.826 1.371 1-1-0.783-0.694-2.226-5.58 0-6 0.156 1.177-0.172 2.838 1 3-0.55-1.86-0.82-9.08-2-7zm12 7c0.829 2.611-3.024 5.486 0 7 0.156-1.177-0.172-2.838 1-3 0.156 1.177-0.172 2.838 1 3 0.06-2.48-1.01-8.89-2-7zm-38 17c-2.036-3.964-2.582-9.418-4-14-2.078 2.372 0.867 5.784 1 9-3.695 0.029-3.627-3.706-6-5 2.23 4.09-1.7 3.38-3 1-0.157 1.177 0.172 2.838-1 3-1.889-0.111-0.694-3.306-3-3-0.956 1.862 2.995 3.342 0 4-3.555 1.555-0.604-3.396-3-3-0.88 3.537 2.569 5.152-1 6-0.138-1.862-0.658-3.342-2-4-0.937 0.845-2.136 6.375 0 7 0.17-1.496-0.357-3.69 1-4-0.353 5.029-0.541 17.536 3 20 0.598-1.78-2.931-4.153 0-5 3.221 0.817 4.771 8.511 6 8 0.409-2.409-1.826-2.174-1-5 4.252-0.869 6.585 5.348 7 5 0.826-2.826-1.409-2.591-1-5 1.376 0.043 2.196-0.471 3-1-0.074 3.74 0.421 6.913 2 9 1.094-5.644-3.914-9.069 2-11 0.119 1.662-0.546 9.057 1 6-0.771-6.319 1.18-19.861 0-20-0.22 0.77-0.03 1.97-1 2zm1-4c-0.675-2.658-1.575-5.092-3-7-0.22 3.56 0.67 5.99 3 7zm-18 21c-0.576 0.606-2.34 4.743 0 5-1.3-2.49 2.93-4.15 0-5zm-182 33c4.465-2.201 6.623-6.711 10-10-5.229 1.43-6.798 6.53-10 10zm164-48c1.439 10.222 1.944 5.188 1-1-2.3-0.7-1.31-1.23-1 1zm96-41.004c2.786-0.88 6.085-1.248 8-3-3.57 0.099-6.87 0.467-8 3zm-49 25.004c0.055 1.052 1.282 0.787 1-1-0.839-1.161-1.319-2.681-1-5-3.67-4.77-0.34 3.27 0 6zm30 0c-0.105-2.561-0.566-4.767-2-6 0.25 1.84 1.01 8.19 2 6zm-27 21c-2.589-8.744-3.939-18.727-8-26 2.15 9.18 4.04 18.62 8 26zm1-20c-0.553-1.78-0.514-4.153-2-5-0.1 1.88 1.22 7.28 2 5zm8 2c-0.389-2.611-0.514-5.487-2-7-0.06 2.47 1.01 8.88 2 7zm7 5c-0.162-1.849 2.362-8.192 0-6-0.156 1.177 0.172 2.838-1 3 0.1-3.1-0.453-5.547-2-7 0.64 3.68 1.03 7.64 3 10zm4-3c-0.914-1.753-0.344-4.99-2-6-0.33 2.42 1.11 8.09 2 6zm-13 5c-0.645-3.689-1.026-7.64-3-10 0.64 3.68 1.03 7.64 3 10zm22-3c-0.553-1.78-0.514-4.153-2-5-0.1 1.88 1.22 7.28 2 5zm-18 4c-0.105-2.561-0.566-4.767-2-6 0.25 1.84 1.01 8.19 2 6zm15 5c1.244-4.106 0.851-14.566-2-8-0.156-1.177 0.172-2.838-1-3 0.81 3.22 1.7 11.58 3 11zm-11-3c-0.553-1.78-0.514-4.153-2-5-0.1 1.88 1.22 7.28 2 5zm4 0c1.395 13.617 2.986 3.608 0-1-0.156-1.177 0.172-2.838-1-3-0.156 1.177 0.172 2.838-1 3 0.075-1.401-0.224-3.824-1-2 0.77 2.77 1 6.7 3 3zm12 3c0.1-3.1-0.453-5.547-2-7-0.65 2.96 3.28 9.8 2 7zm-72-4c1.64 10.9 0.09-8.06 0 0zm43 5c-0.389-2.611-0.514-5.486-2-7-0.06 2.47 1.01 8.88 2 7zm-47 10c1.871-0.216-1.13-11.951-3-15 0.54 5.46 2.32 9.67 3 15zm5 7c1.741-0.444-1.963-17.931-5-22 1.7 7.29 3.88 14.12 5 22zm53-8c2.078 1.119 2.119 1.078 1-1-0.057-4.943-0.987-9.013-3-12 0.2 4.8 2.68 7.32 2 13zm-25-7c0.272-1.361-0.619-3.904-1-2-0.27 1.36 0.62 3.9 1 2zm39 2c0.272-1.361-0.619-3.904-1-2-0.27 1.36 0.62 3.9 1 2zm-65 3c0.272-1.361-0.619-3.904-1-2-0.27 1.36 0.62 3.9 1 2zm29 8c-0.721-3.945-1.24-8.094-3-11 0.3 4.36 1.04 8.29 3 11zm-39-8c1.83 3.755-1.568 12.37 2 8-0.319 2.348-1.58 3.754-1 7 1.376-0.043 2.196 0.471 3 1-0.547-1.453 1.168-5.169-1-5-0.157 1.177 0.172 2.839-1 3 1.57-4.96 0.44-10.38-2-14zm53 6c0.272-1.361-0.619-3.903-1-2-0.27 1.36 0.62 3.9 1 2zm-46 8c-1.092-2.908-0.936-7.064-3-9 1.45 2.54-0.65 8.65 3 9zm6-2c-0.914-1.753-0.344-4.989-2-6-0.33 2.42 1.11 8.09 2 6zm-16 3c-0.705-0.726 0.495-2.983 1-3 0.09-0.003-0.022 4.844 1 2 0.813-2.261-1.481-5.567-2-6 0.872 0.727-0.431 4.001-1 4 0.416 0.001-0.429-7.754-1-3 0.42 3.38 0.23 4.17 2 6zm-144 20c2.561-4.455 10.524-8.788 10-13-2.173 4.84-11.124 8.18-10 13zm-8 2c1.062-3.636 7.527-7.099 6-10-1.434 3.26-7.831 6.79-6 10zm179-25c-0.553-1.78-0.514-4.153-2-5-0.1 1.88 1.22 7.28 2 5zm-93-42c3.28-3.404 13.308-5.336 13-9-3.46 3.22-12.61 6.03-13 9zm16-9c2.058-1.939 10.989-6.557 9-6-3.48 0.88-10 3.95-9 6zm0-5c1.849-2.151 5.36-2.64 7-5-2.84 0.542-8.45 3.478-7 5zm11 6c3.802-0.806 12.273-6.684 11-6-4.1 0.5-12.2 6.76-11 6zm-9 7c1.364-1.477 8.298-6.332 6-5-2.46 0.59-7.76 3.49-6 5zm13 8c-3.09 4.319 14.218-5.821 12-7-3.98 2.35-6.98 5.68-12 7zm-4 7c5.932-2.313 18.37-10.101 19-11-5.64 2.42-18.51 10-19 11z" fill="#EFF0F0"/>
	<path d="m148 87.396c-15.531 8.136-30.452 16.881-47 24 4.617-4.872 13.01-9.872 20-13 8.168-3.655 17.019-6.224 25-10-7.73-1.385-14.009 7.315-23 8 7.93-2.981 15.36-10.979 25-9.004z" fill="#EFF0F0"/>
	<path d="m99 101.4c13.373-1.793 25.919-17.856 43-16-4.68 4.996-18.208 6.446-20 11-7.867 1.074-16.415 9.384-27 11 3.875-3.125 9.179-4.821 14-7-4.105-1.742-8.776 4.535-14 5 0.111-1.889 3.306-0.694 3-3-3.073 0.26-4.497 2.169-7 3 10.734-6.639 27.353-15.877 43-22-11.22 6.44-23.27 12.062-35 18zm22-9.004c-2.902 1.448-13.882 7.616-9 6 3.305-1.556 8.85-4.548 14-7 3.107-1.479 14.166-6.161 10-5-3.79 1.054-10.12 3.565-15 6z" fill="#EFF0F0"/>
	<path d="m74 97.396c2.327-3.339 7.844-3.49 10-7-5.584 1.083-7.591 5.743-14 6 12.018-8.315 26.038-14.628 40-21-7.203 5.797-16.854 9.146-25 14 7.19-1.817 18.246-8.416 26-13-3.247 4.086-10.613 7.542-17 11-6.579 3.562-13.665 7.388-20 10z" fill="#EFF0F0"/>
	<path d="m72 90.396c1.2 1.313 0.39 1.573 0 3 0.018-4.048-4.13 0.521-8 1 6.199-6.468 16.356-8.978 24-14-4.331 0.232-17.663 8.282-7 1 3.956-2.702 11.765-6.744 18-9-1.854 3.812-8.146 3.188-10 7 4.547-1.787 8.197-4.47 13-6-9.092 6.576-19.651 11.682-30 17z" fill="#EFF0F0"/>
	<path d="m88 70.396c-5.799 4.557-13.397 6.065-5 2 1.4-0.677 1.739-2.406 5-2z" fill="#EFF0F0"/>
	<path d="m50 87.396c3.857-5.143 11.428-6.572 18-9-6.38-4.308-13.795 6.576-21 8 8.863-8.47 22.015-12.652 33-19-2.337 4.663-8.071 5.929-13 8 4.956 4.406 10.345-6.591 18-6-11.086 6.581-22.52 12.814-35 18z" fill="#EFF0F0"/>
	<path d="m66 70.396c-3.085-1.001 2.169-1.648 2-3-6.575 3.434-17.76 7.562-20 12-0.279 2.099-2.671-1.449-4 1 5.799 3.763 13.821-5.756 20-9 3.918-2.057 8.138-3.048 12-4-9.963 6.371-21.376 11.291-31 18-0.746-3.02-0.539-4.696-6-3 5.757-4.372 20.912-15.947 30-15 5.825 0.607-0.207-1.013-3 3z" fill="#EFF0F0"/>
	<path d="m47 62.396c-5.413 4.253-12.439 6.894-18 11-1.377 0.149 0.427-4.066-2-1 1.075-3.276 9.086-8.233 15-10-3.811 3.522-9.801 4.866-13 9 6.94-2.059 10.905-7.094 18-9z" fill="#EFF0F0"/>
	<path d="m34 63.396c2.094 2.161-5.463 3.154-6 6-2.685-2.75 4.873-3.744 6-6z" fill="#EFF0F0"/>
	<path d="m33 62.396c-5.24 3.427-9.69 7.643-16 10 4.218-4.448 9.478-7.855 16-10z" fill="#EFF0F0"/>
	<path d="m26 76.396c8.023-4.644 15.077-10.256 25-13-8.035 4.632-15.3 10.034-25 13z" fill="#EFF0F0"/>
	<path d="m63 65.396c-4.879 4.455-11.909 6.758-17 11 1.422-3.925 10.986-8.336 17-11z" fill="#EFF0F0"/>
	<path d="m36 81.396c0.621-3.045 5.379-1.955 6-5 4.003 0.373-3.828 4.332-6 5z" fill="#EFF0F0"/>
	<path d="m59 91.396c10.841-7.492 23.505-13.162 35-20 0.353 3.146-4.45 4.511-7 6-7.836 4.575-18.715 10.196-28 14z" fill="#EFF0F0"/>
	<path d="m74 85.396c-0.53 1.833-7.665 5.646-12 7 3.696-2.637 7.832-4.834 12-7z" fill="#EFF0F0"/>
	<path d="m106 74.396c-7.799 6.868-19.204 10.129-28 16 4.559-6.114 18.34-11.654 28-16z" fill="#EFF0F0"/>
	<path d="m86 103.4c4.773-5.798 16.346-10.992 26-16 5.177-2.686 8.741-4.987 16-6-13.27 8.059-29.048 13.616-42 22z" fill="#EFF0F0"/>
	<path d="m428 3.396c0.023 4.238 4.229-1.391 10 0-3.796 5.76-13.104-0.036-17 5-2.465 0.132-4.818 0.151-6-1-3.132 1.868-6.95 3.049-10 5 1.46-5.218 15.69-6.299 23-9z" fill="#EFF0F0"/>
	<path d="m490 25.396c0.086-1.892 4.281 0.242 3 3-3.56 1.555-0.6-3.396-3-3z" fill="#EFF0F0"/>
	<path d="m490 70.396c-2.775 1.204 5.242-3.071 2-6 0.643 3.85 5.664-0.379 3-2 2.894-0.142 5.184-4.016 5-8-1.017 0.65-1.034 2.299-3 2-0.168-2.263 4.809-4.397 2-6 0.294-2.084 2.706 1.484 3-2-2.998 0.521-0.241-2.822-1-8 2.53 0.803 2.55 4.117 4 6-3.31 9.692-6.72 19.276-15 24z" fill="#EFF0F0"/>
	<path d="m508 41.396c-2.175-5.825-6.211-9.789-8-16-6.424-6.576-18.404-7.596-26-13 0.125-2.208 4.242-0.425 6-1-2.038-2.295-8.305-0.362-12-1 0.614-3.385 6.73-1.27 9-3 4.867 4.118 14.882 6.199 15 12 7.649 1.727 10.695 4.542 13 9 1.209 2.339-3.045-0.875-3-1-1.208 3.396 6.912 10.595 8 15-2.772 1.837-4.247 11.981-6 18 1.47-3.864 4.303-6.364 4-12 0.908-1.983 3.358-1.983 1 0-0.325 15.008-11.994 18.672-20 26 0.053-2.972 7.028-7.62 11-10 1.41-8.921 5.51-15.153 8-23zm-17-25c-4.434-0.263-9.81-4.817-13-3 3.32 1.379 9.6 5.025 13 3z" fill="#EFF0F0"/>
	<path d="m401 23.396c1.896 1.002-2.552 4.036-3 6-1.87-0.977 1.72-4.873 3-6z" fill="#EFF0F0"/>
	<path d="m388 29.396c0.184-0.851-0.39-0.943-1-1 5.716-1.237-4.24 4.218-1 7-0.777 1.824-1.075-0.599-1-2-0.851-0.184-0.943 0.39-1 1-2.3-1.403 2.54-4.046 4-5z" fill="#EFF0F0"/>
	<path d="m394 30.396c2.1-1.5-7.16 5.112 0 0z" fill="#EFF0F0"/>
	<path d="m393 37.396c-0.021-0.672-5.729 6.283-6 10-0.94-3.21 0.74-8.439 6-10z" fill="#EFF0F0"/>
	<path d="m443 84.396c1.135 0.19 0.556 1.003 0 1 17.935 2.597 29.875-9.456 42-16-0.247-1.258-1.988-1.009-2 0 2.292-6.383 10.343-15.651 9-29 7.219 24.846-18.127 43.954-40 47-3.553 0.495-6.673 2.746-9 3-6.667 0.729-13.017-2.242-19 0-0.933-1.067-3.688-0.311-3-3-1.904 0.429-2.513 2.154-5 2-9.835-6.832-21.994-11.339-27-23 6.235 5.432 11.946 11.387 20 15 0.315-3.401 1.355 0.114 6 0-8.754-4.518-21.953-6.462-23-18 3.455 3.212 4.638 8.696 9 11-1.338-4.329-5.06-6.274-7-10-1.362-3.457 4.493-4.713 1-7 1.526-3.141 4.314 2.94 2 4 5.339 7.661 10.197 15.802 20 19-4.434 2.334 1.883 2.568 4 4 1.26-5.07 15.03 4.537 22 0zm-7 2c-6.804-2.486-17.648-0.343-21-2 0.535 0.264 2.166-0.418 2-1 0.154-0.803-7.011-0.644-7-1-0.013 0.426 2.671-0.849 2-1-2.52-0.569-6.419 0.576-6 0 8.15 6.488 19.02 5.141 30 5zm-39-22c1.429 5.587 6.701 12.611 11 12-5.93-1.737-7.33-8.006-11-12z" fill="#EFF0F0"/>
	<path d="m409 75.396c2.977-1.932 6.533 4.1 11 4-2.98 1.934-7.46-3.172-11-4z" fill="#EFF0F0"/>
	<path d="m496 45.396c1.56-4.723 4.96-1.33 0 0z" fill="#EFF0F0"/>
	<path d="m388 47.396c1.238 1.603 0.901 3.737 0 6-1.135-0.19-0.556-1.003 0-1-0.11-2.487-1.87-3.095 0-5z" fill="#EFF0F0"/>
	<path d="m381 48.396c1.938 1.395 1.491 5.176 3 7-1.24 1.815-2.92-4.346-3-7z" fill="#EFF0F0"/>
	<path d="m494 60.396c3.98-4.384-5.08 5.584 0 0z" fill="#EFF0F0"/>
	<path d="m392 61.396c-0.354 1.147-1.761 2.535-2 1-2.396-0.396 0.555 4.555-3 3 0.35-2.771 3-5.886 5-4z" fill="#EFF0F0"/>
	<path d="m21 62.396c1.23 2.604-5.681 5.622-9 7 2.19-3.143 6.17-4.496 9-7z" fill="#EFF0F0"/>
	<path d="m28 62.396c-3.285 1.947-11.674 8.676-12 7 4.447-1.886 6.171-6.495 12-7z" fill="#EFF0F0"/>
	<path d="m15 64.396c-2.506 4.816-6.138 1.184 0 0z" fill="#EFF0F0"/>
	<path d="m408 76.396c-4.299 0.611-9.571-6.413-11-12 3.67 3.994 5.07 10.263 11 12z"/>
	<path d="m406 81.396c-0.419 0.576 3.48-0.569 6 0 0.671 0.151-2.013 1.426-2 1-0.011 0.356 7.154 0.197 7 1 0.166 0.582-1.465 1.264-2 1 3.352 1.657 14.196-0.486 21 2-10.98 0.141-21.85 1.488-30-5z"/>
	<path d="m61 72.396c1.149-0.2-8.017 5.75-12 7 2.909-3.424 7.173-5.493 12-7z" fill="#EFF0F0"/>
	<path d="m25 70.396c1.969 0.441-10.082 4.772 0 0z" fill="#EFF0F0"/>
	<path d="m75 75.396c3.707 1.672-5.489 5.048-9 7-4.422 2.458-9.171 4.957-12 7-0.399-3.789 6.183-4.939 10-7 4.25-2.294 8.271-4.642 11-7z" fill="#EFF0F0"/>
	<path d="m487 76.396c-0.733 0.934-1.818 1.515-3 2-2.51-0.429 1.66-2.154 3-2z" fill="#EFF0F0"/>
	<path d="m77 99.396c-0.302-3.71 5.143-4.38 8-6 8.872-5.03 20.485-11.964 31-16-11.8 8.539-27.083 13.584-39 22z" fill="#EFF0F0"/>
	<path d="m81 101.4c14.062-7.605 27.928-15.405 43-22-6.084 5.051-14.507 8.049-22 12-7.244 3.816-13.709 9.58-21 10z" fill="#EFF0F0"/>
	<path d="m136 86.396c4.166-1.161-6.893 3.521-10 5-5.15 2.452-10.695 5.444-14 7-4.882 1.616 6.098-4.552 9-6 4.88-2.435 11.21-4.946 15-6z"/>
	<path d="m318 99.396c-4.851 2.816-9.982 5.351-16 7 3.83-3.84 10.03-5.31 16-7.004z"/>
	<path d="m275 118.4c-1.172-0.162-0.844-1.823-1-3-2.226 0.42-0.783 5.306 0 6 0.826 2.371-1.409 4.606-1 1-0.658-3.675-1.942-6.724-2-11 1.151-3.235 1.132 2.686 1 4 1.357-0.31 0.83-2.504 1-4 1.18-2.08 1.45 5.14 2 7z"/>
	<path d="m248 133.4c1.18 0.139-0.771 13.681 0 20-1.546 3.057-0.881-4.338-1-6-5.914 1.931-0.906 5.356-2 11-1.579-2.087-2.074-5.26-2-9-0.804 0.529-1.624 1.043-3 1-0.409 2.409 1.826 2.174 1 5-0.415 0.348-2.748-5.869-7-5-0.826 2.826 1.409 2.591 1 5-1.229 0.511-2.779-7.183-6-8-2.931 0.847 0.598 3.22 0 5-3.541-2.464-3.353-14.971-3-20-1.357 0.31-0.83 2.504-1 4-2.136-0.625-0.937-6.155 0-7 1.342 0.658 1.862 2.138 2 4 3.569-0.848 0.12-2.463 1-6 2.396-0.396-0.555 4.555 3 3 2.995-0.658-0.956-2.138 0-4 2.306-0.306 1.111 2.889 3 3 1.172-0.162 0.843-1.823 1-3 1.3 2.38 5.23 3.09 3-1 2.373 1.294 2.305 5.029 6 5-0.133-3.216-3.078-6.628-1-9 1.418 4.582 1.964 10.036 4 14 0.97-0.03 0.78-1.23 1-2zm-7-2c-0.003 0.555 0.81 1.135 1 0-4.432-3.062-15.041 0.677-12 5 0.485-1.182 1.066-2.267 2-3 0.426 1.907 2.857 1.81 2 5 2.391-0.609 7.255 1.255 8-1-0.572-0.905-4.124-3.681-2-4 1.286 1.714 2.068 3.932 5 4 3.346-1.683-3.856-5.107-1-3 3.31 4.73-5.66-2.48-3-3zm-14 11c7.243 1.021 13.312 3.628 19-1-5.88 0.06-13.21-1.97-19 1z"/>
	<path d="m58 175.4c-3.377 3.289-5.535 7.799-10 10 3.202-3.47 4.771-8.57 10-10z"/>
	<path d="m213 136.4c0.944 6.188 0.439 11.222-1 1-0.31-2.23-1.3-1.7 1-1z"/>
	<path d="m409 88.396c-1.299 1.395-12.09 1.89-18 2 5.09-1.574 11.37-1.963 18-2z" fill="#EFF0F0"/>
	<path d="m109 115.4c2.667-3.882 7.934-4.903 12-7 11.226-5.789 23.878-12.234 35-19 0.887 3.477-6.257 5.023-10 7-10.81 5.7-24.83 13.8-37 19z" fill="#EFF0F0"/>
	<path d="m413 89.396c-0.733 0.934-1.818 1.515-3 2-2.51-0.429 1.66-2.154 3-2z" fill="#EFF0F0"/>
	<path d="m151 96.396c3.155 1.122 8.183-4.459 13-5-3.496 4.17-9.2 6.328-14 9-5.018 2.793-9.96 5.529-15 8 5.292 0.637 9.87-5.186 15-8 5.451-2.991 11.738-4.201 16-8 2.062 2.647-2.945 3.343-4 4-12.204 7.607-30.196 16.176-44 23 0.097-2.57 3.903-1.43 4-4-3.15-0.483-2.264 3.069-6 2 2.515-3.298-2.015-1.434-4-1 15.209-9.791 32.567-17.434 49-26-2.05 3.277-6.85 3.815-10 5.996zm-26 19.004c1.632-1.773 10.536-5.572 8-5-2.55 0.85-11.96 4.14-8 5zm-6 0c5.837-4.163 13.568-6.432 19-11-1.209 0.307-15.281 6.73-18 10-1.06-0.05-2.54 0.47-1 1zm22-12c1.66-2.378 9.66-3.622 8-6-1.69 2.343-9.32 3.96-8 6z" fill="#EFF0F0"/>
	<path d="m133 110.4c2.536-0.572-6.368 3.227-8 5-3.96-0.86 5.45-4.15 8-5z"/>
	<path d="m120 114.4c2.719-3.27 16.791-9.693 18-10-5.432 4.568-13.163 6.837-19 11-1.54-0.53-0.06-1.05 1-1z"/>
	<path d="m149 97.396c1.66 2.378-6.34 3.622-8 6-1.32-2.04 6.31-3.657 8-6.004z"/>
	<path d="m119 98.396c2.08 0.55-10.63 4.224 0 0z" fill="#EFF0F0"/>
	<path d="m158 106.4c0.308 3.664-9.72 5.596-13 9 0.39-2.97 9.54-5.78 13-9z"/>
	<path d="m170 100.4c1.989-0.557-6.942 4.061-9 6-1-2.05 5.52-5.12 9-6z"/>
	<path d="m381 94.396c2.854-1.75-1.957 1.5-3 2-3.21-1.128 0.96-2.854 3-2z" fill="#EFF0F0"/>
	<path d="m138 94.396c-7.647 5.687-17.581 9.085-26 14 10.874-2.131 22.68-11.983 35-16-2.09-2.667-4.775 2.491-8 2 2.245-3.755 8.215-3.785 11-7 2.491 0.407 0.06 3.877-2 3 1.125 2.635 3.875-1.342 5-2 0.303 3.711-5.143 4.378-8 6-6.254 3.551-13.289 7.094-21 11-6.381 3.232-11.571 8.215-20 7 1.402-1.598 3.445-2.555 6-3-0.275 2.059-3.725 0.941-4 3 4.554-0.428 4.475-2.512 5-5 9.51-3.82 17.34-9.332 27-13.004z" fill="#EFF0F0"/>
	<path d="m168 96.396c-1.64 2.36-5.151 2.849-7 5-1.45-1.522 4.16-4.458 7-5.004z"/>
	<path d="m181 97.396c-5.54 6.127-14.202 9.132-21 14 3.06-4.62 13.2-10.8 21-14.004z" fill="#EFF0F0"/>
	<path d="m183 101.4c1.273-0.684-7.198 5.194-11 6-1.2 0.76 6.9-5.5 11-6z"/>
	<path d="m100 109.4c-0.697-3.722 8.743-5.905 13-8-3.64 3.35-9.12 4.87-13 8z" fill="#EFF0F0"/>
	<path d="m324 106.4c-1.124 1.875-3.876 2.125-5 4-2.05-1.16 2.6-3.99 5-4z" fill="#EFF0F0"/>
	<path d="m169 109.4c2.298-1.332-4.636 3.523-6 5-1.76-1.51 3.54-4.41 6-5z"/>
	<path d="m290 109.4c-0.733 0.934-1.818 1.515-3 2-2.51-0.43 1.66-2.16 3-2z" fill="#EFF0F0"/>
	<path d="m259 115.4c-0.319 2.319 0.161 3.839 1 5 0.282 1.787-0.945 2.052-1 1-0.34-2.73-3.67-10.77 0-6z"/>
	<path d="m140 122.4c-1.125 1.875-3.875 2.125-5 4-2.05-1.16 2.6-3.99 5-4z" fill="#EFF0F0"/>
	<path d="m188 115.4c2.218 1.179-15.09 11.319-12 7 5.02-1.32 8.02-4.65 12-7z"/>
	<path d="m287 115.4c1.434 1.233 1.895 3.439 2 6-0.99 2.19-1.75-4.16-2-6z"/>
	<path d="m254 116.4c4.061 7.273 5.411 17.256 8 26-3.96-7.38-5.85-16.82-8-26z"/>
	<path d="m191 118.4c-0.63 0.899-13.068 8.687-19 11 0.49-1 13.36-8.58 19-11z"/>
	<path d="m261 117.4c1.486 0.847 1.447 3.22 2 5-0.78 2.28-2.1-3.12-2-5z"/>
	<path d="m269 117.4c1.486 1.513 1.611 4.389 2 7-0.99 1.88-2.06-4.53-2-7z"/>
	<path d="m275 119.4c1.547 1.453 2.1 3.9 2 7 1.172-0.162 0.844-1.823 1-3 2.362-2.192-0.162 4.151 0 6-1.97-2.36-2.36-6.32-3-10z"/>
	<path d="m280 120.4c1.656 1.01 1.086 4.247 2 6-0.89 2.09-2.33-3.58-2-6z"/>
	<path d="m266 121.4c1.974 2.36 2.355 6.311 3 10-1.97-2.36-2.36-6.32-3-10z"/>
	<path d="m289 123.4c1.486 0.847 1.447 3.22 2 5-0.78 2.28-2.1-3.12-2-5z"/>
	<path d="m271 126.4c1.434 1.233 1.895 3.439 2 6-0.99 2.19-1.75-4.16-2-6z"/>
	<path d="m285 126.4c1.172 0.162 0.844 1.823 1 3 2.851-6.566 3.244 3.894 2 8-1.3 0.58-2.19-7.78-3-11zm3 7c1.15-6.41-3.06-2.2 0 0z"/>
	<path d="m275 129.4c1.486 0.847 1.447 3.22 2 5-0.78 2.28-2.1-3.12-2-5z"/>
	<path d="m244 134.4c-2.856-2.107 4.346 1.317 1 3-2.932-0.068-3.714-2.286-5-4-2.124 0.319 1.428 3.095 2 4-0.745 2.255-5.609 0.391-8 1 0.857-3.19-1.574-3.093-2-5-0.934 0.733-1.515 1.818-2 3-3.041-4.323 7.568-8.062 12-5-0.19 1.135-1.003 0.555-1 0-2.66 0.52 6.31 7.73 3 3z" fill="#EFF0F0"/>
	<path d="m278 131.4c0.776-1.824 1.075 0.599 1 2 1.172-0.162 0.844-1.823 1-3 1.172 0.162 0.844 1.823 1 3 2.986 4.608 1.395 14.617 0 1-2 3.7-2.23-0.23-3-3z"/>
	<path d="m291 130.4c1.547 1.453 2.1 3.9 2 7 1.28 2.8-2.65-4.04-2-7z"/>
	<path d="m262 131.4c1.486 1.514 1.611 4.389 2 7-0.99 1.88-2.06-4.53-2-7z"/>
	<path d="m214 133.4c1.87 3.049 4.871 14.784 3 15-0.68-5.33-2.46-9.54-3-15z"/>
	<path d="m217 133.4c3.037 4.069 6.741 21.556 5 22-1.12-7.88-3.3-14.71-5-22z"/>
	<path d="m273 134.4c2.013 2.987 2.943 7.057 3 12 1.119 2.078 1.078 2.119-1 1 0.68-5.68-1.8-8.2-2-13z"/>
	<path d="m308 163.4c-10.006 0.539-14.283 6.75-22 7 0.125 2.209 4.242 0.425 6 1 0.498-1.87 11.753-4.872 17-7-4.32 5.013-10.733 7.933-19 9 0.027 0.973 1.224 0.776 2 1-4.087 0.916-6.876 2.011-14 4-0.909 0.254-0.826 1.043-1 2-4.021 0.688-5.708-0.958-9-1 7.23-1.77 13.562-4.438 21-6-7.557-4.194-15.549 5.089-21 3-2.37 3.08-6.84 3.127-11 2 14.714-6.953 30.616-12.717 47-18-5.357-1.164-6.998-0.037-12-4-0.305-4.082 2.088-0.534 4-1-1.316-2.017-3.283-3.384-6-4-2.594-3.103 5.438 2.253 6-1-0.365 3.234-0.533 1.969 4 3-0.577 2.423-3.776 2.224-6 3 3.182 2.826 5.201-1.945 8-1 0.173 0.059-2.459 1.788-2 2 3.12 1.43 6.69 0.36 8 6z" fill="#EFF0F0"/>
	<path d="m294 159.4c-1.385 2.615-6.488 1.512-8 4 0.437 1.484 1.279-0.395 3 0-2.211 3.123-7.422 3.244-11 5 5.545-5.699-8.157-2.771-9-8 4.966 2.034 9.328 4.672 16 5 1.026-3.36-3.11-1.557-5-2 1.971-2.07 4.55-2.474 8-2-1.16-2.84-4.062-3.938-8-4 1.65-2.7 10.08 2.68 14 2z" fill="#EFF0F0"/>
	<path d="m284 155.4c1.5-3.305 2.445 2.078 5 1-0.91 2.71-3.5-1.02-5-1z" fill="#EFF0F0"/>
	<path d="m264 164.4c3.104-0.104 2.854 3.146 7 2 0.367 1.701-0.78 1.887-2 2 1.599 2.805 4.501-1.404 8 0-6.025 3.752-5.856 2.988-11 3 5.701-0.013-3.997-3.763-6 0 1.891 2.526 3.506-0.922 6 1-2.891 3.671-8.135-0.175-10 0 2.359-2.643 8.904-5.301 12-4 0.49-3.16-4.96-0.38-4-4z" fill="#EFF0F0"/>
	<path d="m6 193.4c0.755-4.245 5.543-4.457 9-6-0.248 1.086-1.988 0.679-2 2 2.218 1.826 5.569-3.721 8-5 0.09 6.32-8.549 6.42-15 9z" fill="#EFF0F0"/>
	<path d="m250 142.4c1.76 2.906 2.279 7.055 3 11-1.96-2.71-2.7-6.64-3-11z"/>
	<path d="m218 150.4c2.064 1.936 1.908 6.092 3 9-3.65-0.35-1.55-6.46-3-9z"/>
	<path d="m225 151.4c1.656 1.011 1.086 4.247 2 6-0.89 2.09-2.33-3.58-2-6z"/>
	<path d="m286 152.4c3.36-0.05-9.67 2.72 0 0z" fill="#EFF0F0"/>
	<path d="m209 154.4c0.571-4.754 1.416 3.001 1 3 0.569 0.001 1.872-3.273 1-4 0.519 0.433 2.813 3.739 2 6-1.022 2.844-0.91-2.003-1-2-0.505 0.017-1.705 2.274-1 3-1.77-1.83-1.58-2.62-2-6z"/>
	<path d="m236 152.4c1.486 0.847 1.447 3.22 2 5-0.78 2.28-2.1-3.12-2-5z"/>
	<path d="m256 158.4c1.521 0.944-2.4 4.866-5 5 0.7-2.64 4.55-2.12 5-5z" fill="#EFF0F0"/>
	<path d="m237 161.4c-2.448 1.553-4.511 3.489-8 4 2.52-1.48 3.25-4.76 8-4z" fill="#EFF0F0"/>
	<path d="m245 161.4c-3.671 2.92-8.082 5.425-3 0h3z" fill="#EFF0F0"/>
	<path d="m246 161.4c6.49-1.21 1.98 4.61 0 0z" fill="#EFF0F0"/>
	<path d="m195 166.4c1.144 1.535-4.249 5.041-8 5 2.7-1.64 5.3-3.37 8-5z" fill="#EFF0F0"/>
	<path d="m77 167.4c0.524 4.212-7.439 8.545-10 13-1.124-4.82 7.827-8.16 10-13z"/>
	<path d="m181 168.4c2.399 0.889-2.173 3.045-4 3-0.43-2.76 3.73-0.94 4-3z" fill="#EFF0F0"/>
	<path d="m174 169.4c2.399 0.889-2.173 3.045-4 3-0.43-2.76 3.73-0.94 4-3z" fill="#EFF0F0"/>
	<path d="m195 170.4c3.03-1.49-7.2 3.52 0 0z" fill="#EFF0F0"/>
	<path d="m251 170.4c-0.729 3.688-3.009-0.426-5 2-2.35-0.84 2.63-2.59 5-2z" fill="#EFF0F0"/>
	<path d="m65 172.4c1.527 2.901-4.938 6.364-6 10-1.831-3.21 4.566-6.74 6-10z"/>
	<path d="m302 184.4c2.313-1.595 7.992 1.969 12 2-3.06 2.34-11.07 1.11-12-2z" fill="#EFF0F0"/>
	<path d="m323 185.4c-1.378 2.622-3.671 4.329-8 4 0.233-4.17 3.547 0.449 6-2-2.082-2.584-9.66 0.326-10-4 3.46 1.2 7.15 2.18 12 2z" fill="#EFF0F0"/>
	<path d="m328 184.4c-6.702-3.934 4.435-0.288 9-1-6.006 3.018-24.019 1.227-32-3-4.096-0.973-6.406 2.475-9 0 0.31-1.357 2.504-0.829 4-1-0.102-2.565-3.727-1.607-5-3 10.57-0.9 20.03 7.96 33 8z" fill="#EFF0F0"/>
	<path d="m178 174.4c0.08-0.094-0.1-0.967 0-1 7.08-2.36-5.48 4.88 0 1z" fill="#EFF0F0"/>
	<path d="m309 176.4c-2.468-2.135 3.175 0.281 4 1 2.47 2.13-3.18-0.28-4-1z"/>
	<path d="m157 177.4c5.25-3.04-7.88 4.56 0 0z" fill="#EFF0F0"/>
	<path d="m307 182.4c-4.387-0.374-10.488 3.026-15 2 2.53-1.49 9.99-3.53 15-2z" fill="#EFF0F0"/>
	<path d="m413 184.4c5.452-3.089 12.123 1.188 19 0-1.6 2.95-12.66-1.11-19 0z" fill="#EFF0F0"/>
	<path d="m69 188.4c2.506-4.82 6.138-1.19 0 0z" fill="#EFF0F0"/>
	<path d="m391 195.4c-0.338-2.062 11.411 1.229 13 1 3.812-2.188 7.239-4.761 13-5-6.37 8.63-17.642 12.358-23 22-0.622-1.995 3.854-7.449 6-10-2.063-1.125-0.875 0.063-2-2 0.241-2.578 1.721 1.373 4 0-0.658-1.342-2.138-1.862-4-2-2.604-1.958 2.853-0.309 4 0-2.63-2.37-6.71-3.3-11-4z" fill="#EFF0F0"/>
	<path d="m396 211.4c1.193 2.238-3.41 7.223-4 11 0.282 1.787-0.945 2.052-1 1 0.56-5.1 2.94-8.4 5-12z" fill="#EFF0F0"/>
	<path d="m380 193.4c1.434-2.953 0.767 2.32-2 1-1.82-0.78 0.6-1.08 2-1z" fill="#EFF0F0"/>
	<path d="m427 195.4c3.868-3.004 13.174-2.199 16-2 11.48 0.81-9.87 0.62-16 2z" fill="#EFF0F0"/>
	<path d="m429 196.4c-4.519 4.148-13.519 3.815-18 8-2.115-2.833 5.725-4.237 9-5-4.49-2.85 5.37-0.73 9-3z" fill="#EFF0F0"/>
	<path d="m465 197.4c1.531 0.013 3.287 2.729 0 2 0.15 1.85 3.387 0.613 4 2 2.14 2.303-4.112-1.019-6-1 0.65-1.02 2.3-1.04 2-3z" fill="#EFF0F0"/>
	<path d="m475 264.4c7.583-4.083 12.479-10.854 15-20 2.643 4.742 2.133-2.318 4-4 5.196 0.913-1.237 4.68 0 8-2.947-2.653-3.477 3.174-5 5 3.629 1.37 1.261-2.987 3-5 0.599-0.693 1.09 1.993 1 2 1.981-0.159 3.363-4.171 4-9 3.906 0.941 0.851 5.045 1 8 3.426-1.24 0.63-8.703 5-9 0.551 6.551-2.321 9.679-3 15 4.836-4.164 2.906-15.094 7-20 0.697 27.698-21.755 40.91-49 44 2.064-3.135-0.688-1.304-3-1 0.287-2.738 12.387-2.262 16-5-7.564-0.596-24.06 7.06-33 2 0.532-1.737 4.818 1.087 7 1-0.733-0.934-1.818-1.515-3-2 5.28-0.194 12.231-2.529 20-3-0.271 2.062-4.428 0.238-4 3 6.725-2.275 14.769-3.231 19-8-3.225 0.775-5.909 2.091-8 4-0.75-2.85-5.341-0.89-8 0-4.665 0.708-4.665-1.708 0-1 3.34-1.66 7.66-2.34 11-4 2.951-1.382 4.049-4.618 7-6-2.275 0.491-15.1 10.986-20 8 15.05-3.616 24.966-12.367 30-26 1.675 1.26-3.176 12.64-8 14 0.529 0.804 1.043 1.623 1 3-2.48 1.84-5.64 3.02-7 6z" fill="#EFF0F0"/>
	<path d="m504 254.4c1.66 2.85-4.16 5.61 0 0z" fill="#EFF0F0"/>
	<path d="m506 251.4c2.55-8.09-1.74 6.61 0 0z" fill="#EFF0F0"/>
	<path d="m469 199.4c1.492-0.941 4.489-0.768 7 1-0.02 1.22-5.65-0.26-7-1z" fill="#EFF0F0"/>
	<path d="m481 206.4c-3.724-0.292 2.943-2.487 2 0 2.35 1.66-0.36-0.09-2 0z" fill="#EFF0F0"/>
	<path d="m479 209.4c-0.33-2.16 6.53 7.11 0 0z" fill="#EFF0F0"/>
	<path d="m484 209.4c0.102-1.907 3.727 0.797 5 1-1.22 3.02-3.82-0.71-5-1z" fill="#EFF0F0"/>
	<path d="m400 211.4c1.332 1.724-3.523 5.767-5 8-2.267 4.348 1.805-5.415 3-7 1.16 0.16 1.78-0.22 2-1z" fill="#EFF0F0"/>
	<path d="m489 216.4c0.789-2.3 3.497 1.721 5 2-0.85 2.934-2.517-1.301-5 0 0.62-0.89 1.21-1.79 0-2z" fill="#EFF0F0"/>
	<path d="m490 219.4c1.995 1.881 1.578 3.632 5 2 0.86 0.807 0.594 2.739 2 3-2.786 3.286-2.373-4.286-6-1 0.13-1.8-1.22-2.11-1-4z" fill="#EFF0F0"/>
	<path d="m501 227.4c-3.144 0.144-3.436-2.564-4-5 2.202 2.295 3.992-0.246 4-3 1.762 0.905 1.652 3.681 4 4-1 0.15-6.92-1.8-4 4z" fill="#EFF0F0"/>
	<path d="m502 225.4c4.82 2.5 1.18 6.13 0 0z" fill="#EFF0F0"/>
	<path d="m496 228.4c1.489-3.295 2.823 1.7 4 2-0.68 2.48-3.04-1.48-4-2z" fill="#EFF0F0"/>
	<path d="m507 231.4c4.82 2.5 1.18 6.13 0 0z" fill="#EFF0F0"/>
	<path d="m393 247.4c-0.404-0.325 6.968 8.167 11 10-1.614 3.125-3.166-2.052-5-2-2.188 0.677 1.895 3.323 3 4 1.794 0.127 2.109-1.224 4-1-1.873 2.651 8.287 6.04 10 5 1.453 0.443-0.102 0.878 0 2 11.288 0.259 24.468 8.154 39 5-2.975 3.692-12.65 0.683-17 3-3.294-5.705-15.515-2.485-21-6 0.85 1.483 2.517 2.15 5 2-1.391 2.618-7.962-1.011-5-3-2.409-0.409-2.174 1.826-5 1-0.182-3.834 0.818-0.362 3-1-0.274-0.908-3.726-3.358-4-1-2.039-5.465-15.243-4.524-13-11-4.28 0.28-4.42-3.58-5-7z" fill="#EFF0F0"/>
	<path d="m386 248.4c4.479 4.527 6.765 15.433 14 14-4.093 3.422 2.202 3.908 6 4 3.193 1.367-3.911 1.367-4 0 0.937 1.797 5.543 5.034 7 3 0.419 1.232 1.281 2.768 4 4 3.088 1.299-2.872 1.318-2-1-12.2-4.13-20.89-11.78-25-24z" fill="#EFF0F0"/>
	<path d="m389 248.4c2.543 1.457 1.937 6.063 5 7-1.51 1.44-5.41-3.21-5-7z" fill="#EFF0F0"/>
	<path d="m301 129.4c2.64-2.706-1.981-6.636-1-11 4.121-0.17 1.879 4.47 6 2 1.633 7.966-3.661 9.005-6 13-2.603-3.731-2.885-9.782-4-15-2.219 4.913 3.01 10.97 2 18-4.749-4.584-4.442-14.224-7-21 4.697 0.535 2.664 2.006 7 2 0.62 4.38 2.6 7.4 3 12z" fill="#EFF0F0"/>
	<path d="m370 185.4c-5.795-1.871-14.561-0.773-21-2 14.003-2.33 32.331-0.335 48-1 3.367 0.633 9.288-1.288 11 1h-36c18.568 2.18 42.135 0.2 59 3 2.068 0.344 1.536 1.233 3 2h4c3.557 1.849-6.501 0.796-8 1-5.357 0.729-10.145 3.456-14 0-1.467-0.011-8.183 0.378-5-1 5.778-0.445 10.247 0.42 15 1-5.146-2.299-29.23-2.334-40-1-2.029 0.251-2.85-0.8-4 2-8.089-2.625-22.785 0.041-35-1-6.179-0.526-12.874-0.022-19 2 0.147-2.187 2.52-2.147 5-2-1.115-2.552-7.734 0.401-9-2 7.607-3.944 16.994-0.28 27-1-0.678-2.705-12.544 0.61-10-2 0.302-5.372 8.696 0.354 14 1 5.07 0.61 10.21-0.48 15 0zm29 0c-13.429 2.904-33.595-0.929-47 2 15.735-0.598 33.906 1.24 48-1 0.845 0.938 6.375 2.136 7 0-3.77 0.76-4.78-1.22-8-1z" fill="#EFF0F0"/>
</g>
<metadata><rdf:RDF><cc:Work><dc:format>image/svg+xml</dc:format><dc:type rdf:resource="http://purl.org/dc/dcmitype/StillImage"/><cc:license rdf:resource="http://creativecommons.org/licenses/publicdomain/"/><dc:publisher><cc:Agent rdf:about="http://openclipart.org/"><dc:title>Openclipart</dc:title></cc:Agent></dc:publisher><dc:title>scissors</dc:title><dc:date>2006-10-25T22:48:50</dc:date><dc:description>drawing of scissors from Home and school sewing Patton, Frances. Newson &amp; Co., New York :[c1901]</dc:description><dc:source>http://openclipart.org/detail/903/scissors-by-johnny_automatic</dc:source><dc:creator><cc:Agent><dc:title>johnny_automatic</dc:title></cc:Agent></dc:creator><dc:subject><rdf:Bag><rdf:li>clip art</rdf:li><rdf:li>clipart</rdf:li><rdf:li>image</rdf:li><rdf:li>media</rdf:li><rdf:li>png</rdf:li><rdf:li>public domain</rdf:li><rdf:li>scissors</rdf:li><rdf:li>svg</rdf:li><rdf:li>tool</rdf:li></rdf:Bag></dc:subject></cc:Work><cc:License rdf:about="http://creativecommons.org/licenses/publicdomain/"><cc:permits rdf:resource="http://creativecommons.org/ns#Reproduction"/><cc:permits rdf:resource="http://creativecommons.org/ns#Distribution"/><cc:permits rdf:resource="http://creativecommons.org/ns#DerivativeWorks"/></cc:License></rdf:RDF></metadata></svg>
